/* XPM */
static char *result[] = {
/* columns rows colors chars-per-pixel */
"64 64 164 2 ",
"   c #000000",
".  c #010D0D",
"X  c #001414",
"o  c #121A1A",
"O  c #3F340A",
"+  c #382F0E",
"@  c #000429",
"#  c #000027",
"$  c #1A2426",
"%  c #242C2C",
"&  c #202C30",
"*  c #2B3333",
"=  c #353933",
"-  c #6F0000",
";  c #7C0000",
":  c #453A0C",
">  c #443806",
",  c #334900",
"<  c #564700",
"1  c #5B4B00",
"2  c #594C1A",
"3  c #564A18",
"4  c #5A5218",
"5  c #4E421A",
"6  c #61531C",
"7  c #524820",
"8  c #5A5538",
"9  c #6D5F2A",
"0  c #6F612B",
"q  c #7A6B2F",
"w  c #70632B",
"e  c #7D6E30",
"r  c #004E4E",
"t  c #3B4343",
"y  c #394949",
"u  c #3A5059",
"i  c #3F6767",
"p  c #464D4D",
"a  c #404747",
"s  c #435354",
"d  c #4C5454",
"f  c #4C5B5B",
"g  c #535A5A",
"h  c #505757",
"j  c #51605F",
"k  c #6A6B58",
"l  c #76765E",
"z  c #4E5F60",
"x  c #445C66",
"c  c #4F6163",
"v  c #556464",
"b  c #5E6565",
"n  c #5B6A6B",
"m  c #5E6863",
"M  c #5E6F70",
"N  c #646C6C",
"B  c #686F6F",
"V  c #647272",
"C  c #6A7373",
"Z  c #6D7C7C",
"A  c #717E7E",
"S  c #787860",
"D  c #830000",
"F  c #8A0000",
"G  c #A53D3D",
"H  c #D20000",
"J  c #E60000",
"K  c #ED0000",
"L  c #F10000",
"P  c red",
"I  c #FE3838",
"U  c #806F2F",
"Y  c #925940",
"T  c #8A5B5B",
"R  c #966F6F",
"E  c #FC6565",
"W  c #FB6B6B",
"Q  c #E3736E",
"!  c #E67474",
"~  c #FC7B7B",
"^  c #FA7777",
"/  c #9E8700",
"(  c #BD9D00",
")  c #968233",
"_  c #9B8736",
"`  c #A9902B",
"'  c #A99234",
"]  c #AA943A",
"[  c #C5AA3A",
"{  c #978643",
"}  c #9C8D51",
"|  c #AF9B4D",
" . c #BEA74D",
".. c #BDA84D",
"X. c #B4A25B",
"o. c #83887B",
"O. c #B7A377",
"+. c #C6AC41",
"@. c #C8AE45",
"#. c #C9B253",
"$. c #D7BE59",
"%. c #D9BF5A",
"&. c #DDC35B",
"*. c #E0C65C",
"=. c #EACE61",
"-. c #FCDF6A",
";. c #FEE36B",
":. c #758383",
">. c #7B8A8A",
",. c #738588",
"<. c #7A8E94",
"1. c #838E8E",
"2. c #929685",
"3. c #849393",
"4. c #889797",
"5. c #8D9B9B",
"6. c #919E9E",
"7. c #94A3A3",
"8. c #99A4A4",
"9. c #9CABAB",
"0. c #A2AFAF",
"q. c #A2A6A6",
"w. c #A4B3B3",
"e. c #A9B7B7",
"r. c #ACBBBB",
"t. c #B1BFBF",
"y. c #FE8282",
"u. c #F49D9D",
"i. c #C7BE8C",
"p. c #F7A2A2",
"a. c #B4C3C3",
"s. c #B9C7C7",
"d. c #BCCBCB",
"f. c #C1CECE",
"g. c #DFCEC7",
"h. c #D6CACA",
"j. c #C4D3D3",
"k. c #C8D7D7",
"l. c #CCDBDB",
"z. c #D0DFDF",
"x. c #ECC0C0",
"c. c #F0CECE",
"v. c #E5DDDD",
"b. c #ECDBDB",
"n. c #E6D5D5",
"m. c #D4E3E3",
"M. c #D8E7E7",
"N. c #DDECEC",
"B. c #D3E9E9",
"V. c #DCF0E7",
"C. c #DFF3F3",
"Z. c #DBFDFD",
"A. c #EAE2E2",
"S. c #E0EFEF",
"D. c #F2E4E5",
"F. c #F3ECEC",
"G. c #F8EAEA",
"H. c #E4F4F4",
"J. c #E8F7F7",
"K. c #E4FDFD",
"L. c #EBFAFA",
"P. c #F2FFFF",
"I. c #FAFFFF",
"U. c None",
/* pixels */
"U.U.U.U.U.U.U.U.U.U.U.U.U.U.U.U.U.U.U.U.U.U.U.U.U.U.U.U.U.U.U.U.U.U.U.U.U.U.U.U.U.U.U.U.U.U.U.U.U.U.U.U.U.U.U.U.U.U.U.U.U.U.U.U.",
"U.U.U.U.U.U.U.U.U.U.U.U.U.U.U.U.U.U.U.U.U.U.U.U.U.U.U.U.U.U.U.U.U.U.U.U.U.U.U.U.U.U.U.U.U.U.U.U.U.U.U.U.U.U.U.U.U.U.U.U.U.U.U.U.",
"U.U.U.U.U.U.U.U.U.U.U.U.U.U.U.U.        U.U.U.U.U.U.U.U.U.U.U.U.U.U.U.U.U.U.U.U.U.U.U.U.U.U.U.U.U.U.U.U.U.U.U.U.U.U.U.U.U.U.U.U.",
"U.U.U.U.U.U.U.U.U.U.U.U.U.U.U.U.        U.U.U.U.U.U.U.U.U.U.U.U.U.U.U.U.U.U.U.U.U.U.U.U.U.U.U.U.U.U.U.U.U.U.U.U.U.U.U.U.U.U.U.U.",
"U.U.U.U.U.U.U.U.U.U.U.U.U.U.U.U.        U.U.U.U.U.U.U.U.U.U.U.U.U.U.U.U.U.U.U.U.U.U.U.U.U.U.U.U.U.U.U.U.U.U.U.U.U.U.U.U.U.U.U.U.",
"U.U.U.U.U.U.U.U.U.U.U.U.U.U.U.U.; F F D U.U.U.U.U.U.U.U.U.U.U.U.U.U.U.U.U.U.U.U.U.U.U.U.U.U.U.U.U.U.U.U.U.U.U.U.U.U.U.U.U.U.U.U.",
"U.U.U.U.U.U.U.U.U.U.U.U.      ; H L L H ;               U.U.U.U.U.U.U.U.U.U.U.U.U.U.U.U.U.U.U.U.U.U.U.U.U.U.U.U.U.U.U.U.U.U.U.U.",
"U.U.U.U.U.U.U.U.U.U.U.U.      F K P P K F               U.U.U.U.U.U.U.U.U.U.U.U.U.U.U.U.U.U.U.U.U.U.U.U.U.U.U.U.U.U.U.U.U.U.U.U.",
"U.U.U.U.U.U.U.U.U.U.U.U.  . X - J P P H ;               U.U.U.U.U.U.U.U.U.U.U.U.U.U.U.U.U.U.U.U.U.U.U.U.U.U.U.U.U.U.U.U.U.U.U.U.",
"U.U.U.U.U.U.U.U.U.U.U.U.; F - G ! y.y.y.R i n N N N C b U.U.U.U.U.U.U.U.U.U.U.U.U.U.U.U.U.U.U.U.U.U.U.U.U.U.U.U.U.U.U.U.U.U.U.U.",
"U.U.U.U.U.U.U.U.      ; H K J ! c.F.G.b.f.r.r.a.t.a.s.0.b       U.U.U.U.U.U.U.U.U.U.U.U.U.U.U.U.        U.U.U.U.U.U.U.U.U.U.U.U.",
"U.U.U.U.U.U.U.U.      F L P P y.F.L.P.K.M.k.z.z.l.k.M.s.B       U.U.U.U.U.U.U.U.U.U.U.U.U.U.U.U.        U.U.U.U.U.U.U.U.U.U.U.U.",
"U.U.U.U.U.U.U.U.      D J P P y.D.P.P.L.m.z.z.z.k.j.k.r.g       U.U.U.U.U.U.U.U.U.U.U.U.U.U.U.U.        U.U.U.U.U.U.U.U.U.U.U.U.",
"U.U.U.U.U.U.U.U.      ; J P P y.D.P.P.H.f.e.e.s.k.M.M.f.1.h B N U.U.U.U.U.U.U.U.U.U.U.U.U.U.U.U.b C C b U.U.U.U.U.U.U.U.U.U.U.U.",
"U.U.U.U.U.U.U.U.      D J P P y.D.P.I.M.6.a a 5.m.P.L.N.d.r.s.0.b       U.U.U.U.U.U.U.U.      b w.s.d.0.b       U.U.U.U.U.U.U.U.",
"U.U.U.U.U.U.U.U.      ; J P P ~ D.P.I.m.B     C M.I.I.K.M.l.m.s.B       U.U.U.U.U.U.U.U.      B s.M.M.s.B       U.U.U.U.U.U.U.U.",
"U.U.U.U.U.U.U.U.      ; J P P W D.P.I.m.N     B m.I.I.J.l.j.l.r.g       U.U.U.U.U.U.U.U.      g r.l.l.t.h       U.U.U.U.U.U.U.U.",
"U.U.U.U.U.U.U.U.2 4 , Y Q ~ W p.F.P.P.N.8.g g 8.N.P.P.J.M.l.m.f.1.d B b U.U.U.U.U.U.U.U.b B h 1.d.M.M.d.1.g B b U.U.U.U.U.U.U.U.",
"U.U.U.U.      2 _ ' / O.g.D.b.A.H.J.L.C.z.l.z.m.H.J.J.J.J.J.L.S.f.r.s.0.N             b 0.s.t.d.N.J.L.N.d.r.s.w.b       U.U.U.U.",
"U.U.U.U.      6 ] +.( i.N.K.K.K.J.J.H.J.P.L.P.P.J.H.H.J.P.P.P.L.M.l.M.s.B             B s.M.k.M.J.P.L.J.M.k.M.s.C       U.U.U.U.",
"U.U.U.U.      6 ] [ ( i.V.K.K.K.K.K.K.K.J.J.J.J.J.H.H.J.P.P.P.L.z.j.l.t.g             d r.l.j.l.H.L.P.H.l.k.l.a.N       U.U.U.U.",
"U.U.U.U.      2 ) ' / O.n.A.A.b.b.b.b.A.S.J.J.H.H.J.H.J.L.L.P.J.l.k.l.s.1.g N N B N g 3.d.m.k.m.J.L.L.H.l.k.l.t.N       U.U.U.U.",
"U.U.U.U.U.U.U.U.2 4 , Y Q ~ ~ ~ ~ ^ E p.A.K.J.H.H.H.H.J.J.J.J.N.m.k.l.k.d.a.a.a.a.s.a.f.M.H.S.S.L.L.L.H.l.j.k.a.N       U.U.U.U.",
"U.U.U.U.U.U.U.U.      ; J P P P P P P E b.K.J.H.J.H.J.H.H.S.J.N.m.l.l.l.z.z.m.m.m.m.z.N.H.L.J.L.L.L.L.J.m.j.l.a.N       U.U.U.U.",
"U.U.U.U.U.U.U.U.      ; J P P P P P P E b.K.J.J.H.J.J.H.J.H.H.S.l.k.k.l.k.k.l.k.z.l.k.z.H.L.J.J.L.L.L.H.z.k.z.a.N       U.U.U.U.",
"U.U.U.U.U.U.U.U.      D J P P I W ^ E u.A.J.H.H.H.H.H.H.C.N.N.N.M.m.m.M.m.m.m.m.m.M.m.m.S.S.S.S.H.J.L.N.k.d.j.e.b       U.U.U.U.",
"U.U.U.U.U.U.U.U.      D J P P W x.v.n.z.S.S.N.H.N.H.C.N.M.z.l.M.H.L.J.J.L.J.J.J.J.J.L.H.m.l.l.z.l.z.m.j.r.0.e.6.d       U.U.U.U.",
"U.U.U.U.U.U.U.U.      D J P P ~ v.Z.Z.H.C.S.N.N.N.N.H.N.m.k.k.M.L.P.P.P.P.P.P.P.P.P.P.J.z.d.f.f.j.j.j.d.9.6.8.3.d       U.U.U.U.",
"U.U.U.U.U.U.U.U.      F L P P ~ b.K.Z.H.H.H.H.C.H.N.S.N.m.k.k.M.L.P.P.P.P.P.P.P.L.P.P.J.l.d.j.j.k.k.l.d.w.9.0.5.d       U.U.U.U.",
"U.U.U.U.U.U.U.U.      ; H L J Q h.B.z.B.m.m.m.N.N.H.S.N.m.l.k.M.J.P.P.L.P.P.L.P.P.P.P.L.N.l.l.l.j.d.k.s.7.3.5.>.p       U.U.U.U.",
"U.U.U.U.U.U.U.U.U.U.U.U.; F ; T 9.a.e.r.a.s.a.d.M.H.H.N.z.l.k.M.L.P.P.P.P.P.P.P.L.P.P.L.L.J.L.N.d.a.d.w.Z = d p U.U.U.U.U.U.U.U.",
"U.U.U.U.U.U.U.U.U.U.U.U.      r >.8.6.7.0.e.0.a.M.H.C.N.m.k.l.M.L.P.P.P.L.P.L.P.P.P.P.P.P.P.P.J.j.r.a.9.d       U.U.U.U.U.U.U.U.",
"U.U.U.U.U.U.U.U.U.U.U.U.      s 5.0.9.0.e.t.r.d.M.J.H.N.M.B.l.M.L.P.P.P.P.L.P.P.P.P.L.P.P.P.I.J.j.r.s.9.g       U.U.U.U.U.U.U.U.",
"U.U.U.U.U.U.U.U.U.U.U.U.      p >.5.3.5.9.9.9.r.l.N.M.B.k.d.d.k.S.L.J.L.P.P.L.P.P.L.P.P.L.J.L.N.s.e.t.9.g       U.U.U.U.U.U.U.U.",
"U.U.U.U.U.U.U.U.U.U.U.U.U.U.U.U.p d p j Z :.Z 4.r.d.s.a.e.w.0.a.l.M.m.M.L.P.P.P.P.P.P.L.M.l.m.k.r.7.w.5.d       U.U.U.U.U.U.U.U.",
"U.U.U.U.U.U.U.U.U.U.U.U.U.U.U.U.      . f n f Z 9.r.e.w.7.6.5.0.f.l.j.m.J.P.P.P.P.P.P.J.l.f.k.s.w.7.9.3.d       U.U.U.U.U.U.U.U.",
"U.U.U.U.U.U.U.U.U.U.U.U.U.U.U.U.      * n V v ,.0.a.a.e.9.7.7.e.j.z.l.M.L.P.P.P.P.P.P.L.m.k.k.d.e.7.w.5.d       U.U.U.U.U.U.U.U.",
"U.U.U.U.U.U.U.U.U.U.U.U.U.U.U.U.      * f n f Z 6.w.0.9.7.6.5.9.s.k.f.k.S.L.J.J.J.J.L.S.k.s.j.a.7.3.5.>.p       U.U.U.U.U.U.U.U.",
"U.U.U.U.U.U.U.U.U.U.U.U.U.U.U.U.U.U.U.U.* = $ p V A Z :.>.4.3.4.9.e.0.t.k.m.m.z.z.z.m.k.r.9.e.7.N t d p U.U.U.U.U.U.U.U.U.U.U.U.",
"U.U.U.U.U.U.U.U.U.U.U.U.U.U.U.U.U.U.U.U.      o y f u v :.3.>.3.5.7.5.0.s.j.j.j.j.j.j.s.0.6.9.3.t       U.U.U.U.U.U.U.U.U.U.U.U.",
"U.U.U.U.U.U.U.U.U.U.U.U.U.U.U.U.U.U.U.U.      % f m v M >.3.1.4.7.9.7.e.d.z.l.l.l.l.z.j.e.8.w.4.d       U.U.U.U.U.U.U.U.U.U.U.U.",
"U.U.U.U.U.U.U.U.U.U.U.U.U.U.U.U.U.U.U.U.      % s f s v Z >.,.>.4.5.4.7.a.d.s.s.a.a.s.r.6.1.5.>.d       U.U.U.U.U.U.U.U.U.U.U.U.",
"U.U.U.U.U.U.U.U.U.U.U.U.U.U.U.U.U.U.U.U.U.U.U.U.% % $ t v V n V V C V :.4.7.7.5.1.:.>.Z v p h p U.U.U.U.U.U.U.U.U.U.U.U.U.U.U.U.",
"U.U.U.U.U.U.U.U.U.U.U.U.U.U.U.U.U.U.U.U.U.U.U.U.      $ s c z f c f s v :.,.,.Z j y u y         U.U.U.U.U.U.U.U.U.U.U.U.U.U.U.U.",
"U.U.U.U.U.U.U.U.U.U.U.U.U.U.U.U.U.U.U.U.U.U.U.U.      $ u x x x v v v n ,.<.<.,.n v m f %       U.U.U.U.U.U.U.U.U.U.U.U.U.U.U.U.",
"U.U.U.U.U.U.U.U.U.U.U.U.U.U.U.U.U.U.U.U.U.U.U.U.      = k S l k j s s m o.2.2.o.j u f s %       U.U.U.U.U.U.U.U.U.U.U.U.U.U.U.U.",
"U.U.U.U.U.U.U.U.U.U.U.U.U.U.U.U.U.U.U.U.U.U.U.U.      7 { | | { 8 @ # 8 } X.X.} 8 @ * % U.U.U.U.U.U.U.U.U.U.U.U.U.U.U.U.U.U.U.U.",
"U.U.U.U.U.U.U.U.U.U.U.U.U.U.U.U.U.U.U.U.U.U.U.U.      3 ' +.+.' <     < ` [ [ ` 1       U.U.U.U.U.U.U.U.U.U.U.U.U.U.U.U.U.U.U.U.",
"U.U.U.U.U.U.U.U.U.U.U.U.U.U.U.U.U.U.U.U.U.U.U.U.      : ] @.@.] :     > ' @.@.] 6       U.U.U.U.U.U.U.U.U.U.U.U.U.U.U.U.U.U.U.U.",
"U.U.U.U.U.U.U.U.U.U.U.U.U.U.U.U.U.U.U.U.U.U.U.5 0 q 0 U ) ] ] _ U 9 9 U _ ] ] ) 3       U.U.U.U.U.U.U.U.U.U.U.U.U.U.U.U.U.U.U.U.",
"U.U.U.U.U.U.U.U.U.U.U.U.U.U.U.U.U.U.U.U.      0 ..&.&...U : O U  .$.$. .U : 2 3 + U.U.U.U.U.U.U.U.U.U.U.U.U.U.U.U.U.U.U.U.U.U.U.",
"U.U.U.U.U.U.U.U.U.U.U.U.U.U.U.U.U.U.U.U.      e &.-.-.$.0     w $.-.;.%.w       U.U.U.U.U.U.U.U.U.U.U.U.U.U.U.U.U.U.U.U.U.U.U.U.",
"U.U.U.U.U.U.U.U.U.U.U.U.U.U.U.U.U.U.U.U.      e &.;.;.&.q     q *.;.;.*.q       U.U.U.U.U.U.U.U.U.U.U.U.U.U.U.U.U.U.U.U.U.U.U.U.",
"U.U.U.U.U.U.U.U.U.U.U.U.U.U.U.U.U.U.U.U.      w #.=.=.#.w     0 #.=.=.#.0       U.U.U.U.U.U.U.U.U.U.U.U.U.U.U.U.U.U.U.U.U.U.U.U.",
"U.U.U.U.U.U.U.U.U.U.U.U.U.U.U.U.U.U.U.U.U.U.U.U.U.U.U.U.U.U.U.U.U.U.U.U.U.U.U.U.U.U.U.U.U.U.U.U.U.U.U.U.U.U.U.U.U.U.U.U.U.U.U.U.",
"U.U.U.U.U.U.U.U.U.U.U.U.U.U.U.U.U.U.U.U.U.U.U.U.U.U.U.U.U.U.U.U.U.U.U.U.U.U.U.U.U.U.U.U.U.U.U.U.U.U.U.U.U.U.U.U.U.U.U.U.U.U.U.U.",
"U.U.U.U.U.U.U.U.U.U.U.U.U.U.U.U.U.U.U.U.U.U.U.U.U.U.U.U.U.U.U.U.U.U.U.U.U.U.U.U.U.U.U.U.U.U.U.U.U.U.U.U.U.U.U.U.U.U.U.U.U.U.U.U.",
"U.U.U.U.U.U.U.U.U.U.U.U.U.U.U.U.U.U.U.U.U.U.U.U.U.U.U.U.U.U.U.U.U.U.U.U.U.U.U.U.U.U.U.U.U.U.U.U.U.U.U.U.U.U.U.U.U.U.U.U.U.U.U.U.",
"U.U.U.U.U.U.U.U.U.U.U.U.U.U.U.U.U.U.U.U.U.U.U.U.U.U.U.U.U.U.U.U.U.U.U.U.U.U.U.U.U.U.U.U.U.U.U.U.U.U.U.U.U.U.U.U.U.U.U.U.U.U.U.U.",
"U.U.U.U.U.U.U.U.U.U.U.U.U.U.U.U.U.U.U.U.U.U.U.U.U.U.U.U.U.U.U.U.U.U.U.U.U.U.U.U.U.U.U.U.U.U.U.U.U.U.U.U.U.U.U.U.U.U.U.U.U.U.U.U.",
"U.U.U.U.U.U.U.U.U.U.U.U.U.U.U.U.U.U.U.U.U.U.U.U.U.U.U.U.U.U.U.U.U.U.U.U.U.U.U.U.U.U.U.U.U.U.U.U.U.U.U.U.U.U.U.U.U.U.U.U.U.U.U.U.",
"U.U.U.U.U.U.U.U.U.U.U.U.U.U.U.U.U.U.U.U.U.U.U.U.U.U.U.U.U.U.U.U.U.U.U.U.U.U.U.U.U.U.U.U.U.U.U.U.U.U.U.U.U.U.U.U.U.U.U.U.U.U.U.U.",
"U.U.U.U.U.U.U.U.U.U.U.U.U.U.U.U.U.U.U.U.U.U.U.U.U.U.U.U.U.U.U.U.U.U.U.U.U.U.U.U.U.U.U.U.U.U.U.U.U.U.U.U.U.U.U.U.U.U.U.U.U.U.U.U.",
"U.U.U.U.U.U.U.U.U.U.U.U.U.U.U.U.U.U.U.U.U.U.U.U.U.U.U.U.U.U.U.U.U.U.U.U.U.U.U.U.U.U.U.U.U.U.U.U.U.U.U.U.U.U.U.U.U.U.U.U.U.U.U.U."
};
