/* XPM */
static char *result[] = {
/* columns rows colors chars-per-pixel */
"64 64 202 2 ",
"   c black",
".  c #1B1600",
"X  c #2B0000",
"o  c #211C00",
"O  c #2C2800",
"+  c #332F0B",
"@  c #3C3700",
"#  c #38351B",
"$  c #060B2B",
"%  c #3A3C34",
"&  c #540800",
"*  c #5C2B00",
"=  c #484416",
"-  c #634800",
";  c #504E3C",
":  c #573C5A",
">  c #24486C",
",  c #41424A",
"<  c #565445",
"1  c #595548",
"2  c #4E4F55",
"3  c #58595C",
"4  c #684244",
"5  c #665A41",
"6  c #646254",
"7  c #66655C",
"8  c #69665B",
"9  c #6B695C",
"0  c #706E5A",
"q  c #75735C",
"w  c #7A745D",
"e  c #45546B",
"r  c #5E5F65",
"t  c #6F5E62",
"y  c #5F6064",
"u  c #5E636B",
"i  c #5D6D6D",
"p  c #656564",
"a  c #686B66",
"s  c #636469",
"d  c #6E6E69",
"f  c #7C6563",
"g  c #7A7461",
"h  c #777668",
"j  c #6A6C71",
"k  c #6C7379",
"l  c #737474",
"z  c #767675",
"x  c #7C7C78",
"c  c #930000",
"v  c #9E0000",
"b  c #A30000",
"n  c #A90000",
"m  c #B00000",
"M  c #89003B",
"N  c #BE0A22",
"B  c #99242B",
"V  c #963438",
"C  c #8D6E00",
"Z  c #9D7A00",
"A  c #94771C",
"S  c #BD6503",
"D  c #8E7736",
"F  c #C55600",
"G  c #D06B2B",
"H  c #A65450",
"J  c #887647",
"K  c #857968",
"L  c #BB7A73",
"P  c #C36664",
"I  c #A88500",
"U  c #BA9512",
"Y  c #D1AC1A",
"T  c #F1BA00",
"R  c #D9B53B",
"E  c #F2BE35",
"W  c #FFD800",
"Q  c #EDC41F",
"!  c #F4CA29",
"~  c #FED73A",
"^  c #FFE237",
"/  c #83924C",
"(  c #9E8B55",
")  c #879652",
"_  c #889654",
"`  c #8F9D5F",
"'  c #888367",
"]  c #8A876E",
"[  c #948663",
"{  c #909E61",
"}  c #858377",
"|  c #8D8A74",
" . c #8F8D7E",
".. c #928F73",
"X. c #96937B",
"o. c #9A957A",
"O. c #94A166",
"+. c #96A36A",
"@. c #99A56E",
"#. c #9CA773",
"$. c #9EA976",
"%. c #D7B545",
"&. c #D29878",
"*. c #F2CB43",
"=. c #FFE448",
"-. c #FCD868",
";. c #F2CC7C",
":. c #FFE17A",
">. c #7A7C81",
",. c #7D838E",
"<. c #7A889A",
"1. c #808185",
"2. c #888783",
"3. c #8D8D8D",
"4. c #908F89",
"5. c #8B8E92",
"6. c #899494",
"7. c #8C929A",
"8. c #939495",
"9. c #95979A",
"0. c #959A9A",
"q. c #A29F84",
"w. c #A29F88",
"e. c #A19F94",
"r. c #A5A786",
"t. c #A6A38B",
"y. c #ACA98F",
"u. c #A8B286",
"i. c #ACB48E",
"p. c #A1A095",
"a. c #AEAB91",
"s. c #ADAB97",
"d. c #B1AE95",
"f. c #B2AF99",
"g. c #AEB690",
"h. c #B3B595",
"j. c #B6B39C",
"k. c #B9B6A0",
"l. c #BCBAA4",
"z. c #B9B9BA",
"x. c #D7A499",
"c. c #C2BFA9",
"v. c #FDE39D",
"b. c #C4C2AA",
"n. c #C9C6AE",
"m. c #C4C3B5",
"M. c #CAC9B5",
"N. c #CACCB4",
"B. c #C7C7B9",
"V. c #D1CDB5",
"C. c #D3CFB8",
"Z. c #CBD1B5",
"A. c #CCD2B8",
"S. c #D6D3BC",
"D. c #D9D6BF",
"F. c #E4D8B4",
"G. c #C4C4C4",
"H. c #CCCEC6",
"J. c #CCCDC9",
"K. c #CDD0C7",
"L. c #CED0CA",
"P. c #D4D6C2",
"I. c #DAD7C1",
"U. c #DDDAC4",
"Y. c #D3D4CE",
"T. c #D9D7C8",
"R. c #DBDACA",
"E. c #D5D6D1",
"W. c #D6D8D2",
"Q. c #DCDBD6",
"!. c #D9D9D8",
"~. c #DCDBDB",
"^. c #E1DECD",
"/. c #E9DBCC",
"(. c #E1DED9",
"). c #DEE1D4",
"_. c #E4E1CB",
"`. c #F6ECCB",
"'. c #E5E3D3",
"]. c #E9E6D4",
"[. c #EBE9D7",
"{. c #E4E7DC",
"}. c #E6E8DF",
"|. c #EEECDA",
" X c #F7EFD2",
".X c #F1EEDD",
"XX c #F2F0DF",
"oX c #FDF5D8",
"OX c #E4E4E5",
"+X c #E7E8E0",
"@X c #E9EBE5",
"#X c #EAEBEB",
"$X c #F5F4E3",
"%X c #F9F7E6",
"&X c #FAF8E7",
"*X c #F5F6EA",
"=X c #FDFCEA",
"-X c #EFF1F1",
";X c #F2F3F3",
":X c #F7F8F7",
">X c #FEFEF1",
",X c #F6F6F8",
/* pixels */
"/ / / / / / / / / / / / / / / / / / / / / / / / / / / / / / / / / / / / / / ` B.+X+XN.` / / / / / / / / / / / / / / / / / / / / ",
"/ / / / / / / / / / / / / / / / / / / / / / / / / / / / / / / / / / / / / ` i.K.:X:XL.g.{ / / / / / / / / / / / / / / / / / / / ",
"/ / / / / / / / / / / / / / / / / / / / / / / / / / / / / / / / / / / / ` A.E.0.i i 9.W.A.` / / / / / / / / / / / / / / / / / / ",
"/ / / / / / / / / / / / / / / / / / / / / / / / / / / / / / / / / / / ` g.E.~.f     f !.E.g.{ _ / / / / / / / / / / / / / / / / ",
"/ / / / / / / / / / / / / / / / / / / / / / / / / / / / / / / / / / +.N.K.0.f V b b B 4 5.E.P.@./ / / / / / / / / / / / / / / / ",
"/ / / / / / / / / / / / / / / / / / / / / / / / / / / / / / / / / / $.}.;Xi   v N m B 4 5.E.A.@./ / / / / / / / / / / / / / / / ",
"/ / / / / / / / / / / / / / / / / / / / / / / / / / / / / / / / / / +.{.-Xi   v b & t Y.L.u._ ) / / / / / / / / / / / / / / / / ",
"/ / / / / / / / / / / / / / / / / / / / / / / / / / / / / / / / _ ` i.H.J.8.K L L h 6.!.K.u.) / / / / / / / / / / / / / / / / / ",
"/ / / / / / / / / / / / / / / / / / / / / / / / / / / / / / / ) ` Z.Y.,.z B.]././.'.B.x 1.Y.Z.` / / / / / / / / / / / / / / / / ",
"/ / / / / / / / / / / / / / / / / / / / / / / / / / / / / / ) ` i.Y.Q.x  .'.>X=X=X>X'. .x ~.Y.g.` _ / / / / / / / / / / / / / / ",
"/ / / / / / / / / / / / / / / / / / / / / / / / / / / / / / ` A.Y.1.x m.'.$X&X$X$X%X$X'.m.x 1.E.Z.` / / / / / / / / / / / / / / ",
"/ / / / / / / / / / / / / / / / / / / / / / / / / / / / ) ` g.E.~.x  .'.>X$X$X$X$X$X%X>X'. .x ~.E.i.` / / / / / / / / / / / / / ",
"/ / / / / / / / / / / / / / / / / / / / / / / / / / / / ` A.E.1.x m.].$X$X$X$X$X$X$X$X%XXX].m.x ,.Y.A.` / / / / / / / / / / / / ",
"/ / / / / / / / / / / / / / / / / / / / / / / / / / ) ` i.W.).x  .'.=X%X$X$X$X$X$X$X$X$X%X=X'. .x ~.Y.i.` _ / / / / / / / / / / ",
"/ / / / / / / / / / / / / / / / / / / / / / / / / ) +.Z.K.3.4.M.'.XX%X$X$X$X$X&X=X=X&X$X$X%X$X'.B.4.4.L.N.+./ / / / / / / / / / ",
"/ / / / / / / / / / / / / / / / / / / / / / / / / ) $.).;X2 ; ).>X%X$X$X$X$X.X_.R.R.'..X$X$X%X>X^.< 2 ;X{.#./ / / / / / / / / / ",
"/ / / / / / / / / / / / / / / / / / / / / / / / / / #.).OXy 6 R.=X$X$X$X$X=X_.p.7 p p.^.&X$X%X=XR.6 r OX).$./ / / / / / / / / / ",
"/ / / / / / / / / / / / / / _ +.$.#.#.#.$.$.+._ / / #.).OXs 7 R.=X%XXX$X$X=XR.7     8 T.=X$X%X=XR.7 u OX).#./ / / / / / / / / / ",
"/ / / / / / / / / / / ) / / ` Z.{.).).).).{.Z.` / / #.).OXs 7 U.=X%X$X$X%X=XT.7     7 R.=X%X%X>XW.2 e #X).+./ / / / / / / / / / ",
"/ / / / / / / / / / / / / ` g.J.;X#XOXOX#X;XJ.i.` / @.).OXs 8 T.=X%X$X$X$X&X(.p.7 7 e.(.=X$XXXoXF.( K L.J.i.` / / / / / / / / / ",
"/ / / / / / / / / ) / / ` A.R.0.s j l l j s 9.W.N./ ` R.OXs 7 R.=X$XXX%X$X%X.X_.R.R.(..X%X*X Xv.-.*.%.f <.E.A.` / / / / / / / / ",
"/ / / / / / / / / / / ` g.W.~.z   . O O .   z ~.Y.u.u.{.OXs 7 T.=X%X$XXX$X$X$X&X=X=X&X%X$X*X`.-.W ^ ! Z K !.E.i.{ _ / / / / / / ",
"/ / / / / / / / / / ` A.W.8.d | o.X.X.X.X.X.| d 4.H.}.:X~.s 7 T.&X%X$X$X$XXXXX%X$X%X%XXX$X*X`.:.W ^ =.! R J ,.E.P.@./ / / / / / ",
"/ / / / / / / / / ` g.E.!.a @ o.f.s.a.a.d.h.o.@ p J.#X~.z., 7 R.=X%XXX$X$X$X$X$XXX%XXX$X*X*X`.;.T E E ! R J ,.L.P.@./ / / / / / ",
"/ / / / / / / / ` A.Y.3.3 h ..o.r.q.q.q.q.r.q...K a r s ,   7 T.=X%XXX$X$X$XXX$X$X$X$X$X%X&X].&.F G S - ' ).E.i.{ ) / / / / / / ",
"/ / / / / / _ ` i.E.).2.g j.b.b.l.l.l.l.l.l.l.c.j.} 1 6 8 7 p.'.&X$X$X$X$X$X$X$X$X$XXX$X%X&X(.P b n M : 6.E.A.` / / ) / / / / / ",
"/ / / / / / +.Z.J.4.3.B._.'.].].].].].].].'.].].'.R.R.R.R.R.'..X%X$XXX$X$X$X$X$X$XXX$XXX%X&X/.P c & d G.K.i.` ) / / / / / / / / ",
"/ / / / / / $.}.;X2 < (.>X=X%X%X%X&X%X%X&X&X&X&X&X=X=X=X=X=X&X$X$X$X$X$X$X$XXX$X$X$X$X$X$X&X/.x.H X ,.-X).O./ / / / / / / / / / ",
"/ / / / / / #.).@Xr 6 R.=X%X$X%X$X$X$X$X$X$X$X$X*X%X%X%X%X&X&X%X%X$X$X$X$X%XXX$X%XXX$X$XXX%XXX|.c.1 j OX).@./ / / / / / / / / / ",
"/ / / / / / @.).OXs 8 R.=X%X$XXX$X$X$X$X$X$X$X$X$X.X|..X.X|.|.|.|.|..X$X$XXX$X$XXX$X$X$XXXXX%X>X'.d y OX).#./ / / / / / / / / / ",
"/ / / / / / O.).OXs 7 T.=X%XXX%X$X$X%X%X$X*X%X%X.X_.I.U.U.U.U.U.U.U._.XX%X$X$X$X$X$XXX$X%XXX%X=XR.8 s OX).#./ / / / / / / / / / ",
"/ / / / / / @.Q.OXs 8 T.=X%XXXXX|..X|.|..X|..X.X].I.V.C.C.S.C.C.C.V.D.].XX$X$XXX$XXX%X$X$X$X%X=XR.8 y OX).#./ / / / / / / / / / ",
"/ / / / / / #.).OXs 9 Q.=X=XXX_.U.U.U.U.U.U.U.^.U.S.C.S.S.C.S.C.S.S.S.D._..X%X$XXX$X$X$X$XXX$X=X).a s OX).#./ / / / / / / / / / ",
"/ / / / / / $.!.OXu 1 C.$XXX].I.V.C.C.V.C.C.V.V.C.S.D.S.S.S.D.S.S.S.S.V.I.|.$X$X$X$X$X$X$X$X$X$XV.1 s OX).$./ / / / / / / / / / ",
"/ / / / / / $.{.;Xy   t.N.I.U.S.S.S.S.S.S.S.S.S.S.S.S.S.D.S.S.S.S.S.S.V.U.|.$X$X$X$X$X$X$X=XXXS.w.  y ;X}.$./ / / / / / / / / / ",
"/ / / / / / +.Z.K.8.d K q.n.D.S.S.S.S.D.S.S.S.D.S.S.S.S.S.S.S.D.S.S.S.S.U.|.%X$X$X$X$X$X$XXXS.t.g h 9.H.Z.+./ / / / / / / / / / ",
"/ / / / / / _ ` i.H.J.d 0 c.U.D.S.S.S.S.S.S.S.S.D.S.S.S.S.S.S.S.S.S.S.C.^.|.%X$X$X$X$X=XXXS.t.= p !.W.i.` _ / / / / / / / / / / ",
"/ / / / / / / / +.{.;Xs # l.U.I.S.S.S.S.S.S.S.S.S.S.S.S.S.S.S.S.S.S.S.n.S.|.$X$X$X$X$X|.I.t.q p 8.W.Z.O./ / / / / / / / / / / / ",
"/ / / / / / / / #.{.;Xr O b._.D.S.S.S.D.S.S.S.S.S.S.S.S.S.S.S.D.S.U.V.d.l.].&X$X$X=XXXS.t.= p ~.W.i.{ / / / / / / / / / / / / / ",
"/ / / / / / / / @.Z.H.8.} s.n.S.D.D.D.S.S.D.S.D.S.D.S.D.S.D.D.D.S.V.n.h.m.].&X%X$XXXI.t.q p 8.E.A.{ / / / / / / / / / / / / / / ",
"/ / / / / / / / _ ` i.E.~.z q b._.D.U.D.D.D.D.D.D.D.I.D.D.D.D.D.V.d.j.U.|.$X$X=X.XI.t.= p ~.W.g.` / / / / / / / / / / / / / / / ",
"/ / / / / / / / / / ` Z.Y.3.z f.b.c.c.n.V.M.V.M.n.N.M.M.V.n.M.V.n.j.n.|.=X%X$X|.P.t.q p 8.W.A.` / / / / / / / / / / / / / / / / ",
"/ / / / / / / / / / _ { g.W.~.} O # q y.c.j.d.a.y.a.y.a.y.y.y.t.l.T.|.XX$X=X|.S.t.= p ~.W.g.` / / / / / / / / / / / / / / / / / ",
"/ / / / / / / / / / / / ` A.E.8.3 s l } ..q.y.j.l.l.k.k.j.l.j.j.M..X=X&X$X$XP.t.w p 8.E.A.` / / / / / / / / / / / / / / / / / / ",
"/ / / / / / / / / / / / / ` i.L.;X;XJ.a @ ..b.^.|.|.|.[.|.[.[.[.|.%X=X=X.XS.t.= p Q.W.g.` / / / / / / / / / / / / / / / / / / / ",
"/ / / / / / / / / / / / / / ` N.+X'.H.5.p ' h.R.XX|.|.|.|.|.|.|.|.].].|.T.y.g 7 8.W.Z.` / / / / / / / / / / / / / / / / / / / / ",
"/ / / / / / / / / / / / / / _ +.$.+.i.J.J.z 9 f.N.b.b.b.b.b.b.b.c.c.c.n.s.6 z J.H.i.` _ / / / / / / / / / / / / / / / / / / / / ",
"/ / / / / / / / / / / / / / / / / / { '.-Xk   w ..] ] ] ] ] ] | ] ] | ..g   l -X'.O./ / ) / / / / / / / / / / / / / / / / / / / ",
"/ / / / / / / / / / / / / / / / / / O.'.-X>.  % ; + . . . O . o . . + < %   z -X).O./ / ) / / / / / / / / / / / / / / / / / / / ",
"/ / / / / / / / / / / / / / / / _ ` u.J.J...-   $ r z j d k k l l k y $   X K C.L.i.{ / / / / / / / / / / / / / / / / / / / / / ",
"/ / / / / / / / / / / / / / / / +.Z.J.6.[ %.Y * > G.OXE.!.OX@X@XOX).z.u X C ( 6 7.W.A.` / / / / / / / / / / / / / / / / / / / / ",
"/ / / / / / / / / / / / / / / / $.OX,Xe * ! ~ I } G.OX,X;X).W.W.+X:X~.>.X I I & 9 ~.E.g.{ ) / / / / / / / / / / / / / / / / / / ",
"/ / / / / / / / / / / / / / / / $.+X,Xe * Q =.~ %.D 7.,X#Xh.O.O.h.@X-Xi   Z U I A 5 6.E.P.@./ / / / / / / / / / / / / / / / / / ",
"/ / / / / / / / / / / / / / / / +.B.J.7.' %.Q ! %.J >.J.Z.` / / { N.L.0.w D Z I A 5 5.E.P.@./ / / / / / / / / / / / / / / / / / ",
"/ / / / / / / / / / / / / / / / ) ` g.!.(.[ * * [ (.E.i.` ) / / ) ` g.!.~.g     g ~.E.g.{ _ / / / / / / / / / / / / / / / / / / ",
"/ / / / / / / / / / / / / / / / / / ` Z.E.7.e e 7.E.V.` / / / / / / ` A.!.0.u u 8.E.Z.` / / / / / / / / / / / / / / / / / / / / ",
"/ / / / / / / / / / / / / / / / / / / ` i.K.,X,XJ.g.` / / / / / / / ) ` i.J.;X,XH.i.` / / / / / / / / / / / / / / / / / / / / / ",
"/ / / / / / / / / / / / / / / / / / / / ` Z.+X+XZ.` / / / / / / / / / / ` Z.+X+XN.` / / / / / / / / / / / / / / / / / / / / / / ",
"/ / / / / / / / / / / / / / / / / / / / ) +.$.$.+._ / / / / / / / / / / _ @.$.$.` / / / / / / / / / / / / / / / / / / / / / / / ",
"/ / / / / / / / / / / / / / / / / / / / / / / / / / / / / / / / / / / / / / / / / / / / / / / / / / / / / / / / / / / / / / / / ",
"/ / / / / / / / / / / / / / / / / / / / / / / / / / / / / / / / / / / / / / / / / / / / / / / / / / / / / / / / / / / / / / / / ",
"/ / / / / / / / / / / / / / / / / / / / / / / / / / / / / / / / / / / / / / / / / / / / / / / / / / / / / / / / / / / / / / / / ",
"/ / / / / / / / / / / / / / / / / / / / / / / / / / / / / / / / / / / / / / / / / / / / / / / / / / / / / / / / / / / / / / / / ",
"/ / / / / / / / / / / / / / / / / / / / / / / / / / / / / / / / / / / / / / / / / / / / / / / / / / / / / / / / / / / / / / / / "
};
