/* XPM */
static char *result[] = {
/* columns rows colors chars-per-pixel */
"64 64 245 2 ",
"   c #5A000F",
".  c #750007",
"X  c #790000",
"o  c #750008",
"O  c #76060B",
"+  c #70000E",
"@  c #75000D",
"#  c #75000E",
"$  c #7D000A",
"%  c #7F000A",
"&  c #78000D",
"*  c #7C000E",
"=  c #7F000E",
"-  c #7E000F",
";  c #7D020F",
":  c #7D070D",
">  c #7F070D",
",  c #750E0E",
"<  c #7C0F0F",
"1  c #660011",
"2  c #670011",
"3  c #690011",
"4  c #780010",
"5  c #7A0010",
"6  c #7F0310",
"7  c #7C1010",
"8  c #7E1010",
"9  c #683523",
"0  c #6F3823",
"q  c #713823",
"w  c #005F0D",
"e  c #105E0D",
"r  c #00630B",
"t  c #006610",
"y  c #006710",
"u  c #0A6311",
"i  c #0E6511",
"p  c #006810",
"a  c #006910",
"s  c #006911",
"d  c #006A11",
"f  c #126612",
"g  c #136612",
"h  c #146712",
"j  c #1F6211",
"k  c #007012",
"l  c #007313",
"z  c #1A791B",
"x  c #206411",
"c  c #226512",
"v  c #236612",
"b  c #246F14",
"n  c #2C6F14",
"m  c #38771B",
"M  c #3E771B",
"N  c #36613E",
"B  c #3F653D",
"V  c #6D4511",
"C  c #734412",
"Z  c #744412",
"A  c #685212",
"S  c #6A5614",
"D  c #6A5915",
"F  c #685A15",
"G  c #685B15",
"H  c #695B15",
"J  c #685C15",
"K  c #745219",
"L  c #74531A",
"P  c #79521A",
"I  c #7A521A",
"U  c #7B521A",
"Y  c #597517",
"T  c #547B18",
"R  c #557B18",
"E  c #537D18",
"W  c #646416",
"Q  c #646A18",
"!  c #6A711D",
"~  c #737919",
"^  c #737B1B",
"/  c #41663D",
"(  c #57723A",
")  c #007547",
"_  c #007647",
"`  c #007048",
"'  c #810002",
"]  c #820002",
"[  c #81000F",
"{  c #97000B",
"}  c #870015",
"|  c #880015",
" . c #930213",
".. c #950010",
"X. c #950011",
"o. c #930413",
"O. c #900014",
"+. c #970014",
"@. c #930B12",
"#. c #930A14",
"$. c #921414",
"%. c #BE001D",
"&. c #BD111C",
"*. c #BD131C",
"=. c #BD151C",
"-. c #B91C1A",
";. c #BA1F1B",
":. c #BD181C",
">. c #BC181D",
",. c #BC1C1C",
"<. c #AA3B1B",
"1. c #B6331C",
"2. c #B6341C",
"3. c #B9371D",
"4. c #B73B1A",
"5. c #B5381D",
"6. c #B6381D",
"7. c #C10019",
"8. c #C1001A",
"9. c #C2001C",
"0. c #C3001D",
"q. c #CE001D",
"w. c #CF001D",
"e. c #D0001D",
"r. c #D0001F",
"t. c #D1001F",
"y. c #D3001E",
"u. c #D6001E",
"i. c #CC101F",
"p. c #CC111F",
"a. c #CA151F",
"s. c #CB151F",
"d. c #CA191F",
"f. c #CB191F",
"g. c #CB1C1F",
"h. c #C91F1F",
"j. c #CA1F1F",
"k. c #CB201F",
"l. c #D10020",
"z. c #D50021",
"x. c #D00C20",
"c. c #D10D20",
"v. c #CF1620",
"b. c #CF1A20",
"n. c #CF1D20",
"m. c #D51021",
"M. c #CE2020",
"N. c #CF2120",
"B. c #D32721",
"V. c #864215",
"C. c #8B501B",
"Z. c #8C521C",
"A. c #AC4A1D",
"S. c #BA471E",
"D. c #B6481E",
"F. c #B7481E",
"G. c #A56F0D",
"H. c #A66F0D",
"J. c #A3730B",
"K. c #A5700D",
"L. c #AB6411",
"P. c #854023",
"I. c #AE5023",
"U. c #AF5422",
"Y. c #A85B21",
"T. c #A95E22",
"R. c #BA5523",
"E. c #BB5523",
"W. c #BC5423",
"Q. c #BF5723",
"!. c #BC5424",
"~. c #BE5524",
"^. c #C05124",
"/. c #C15224",
"(. c #078B16",
"). c #1C8D19",
"_. c #1F8E19",
"`. c #328116",
"'. c #308719",
"]. c #3C8218",
"[. c #3C8318",
"{. c #3F8218",
"}. c #3C8E1B",
"|. c #3D8E1B",
" X c #3B9420",
".X c #438818",
"XX c #428A1A",
"oX c #438B1A",
"OX c #44891A",
"+X c #458B1A",
"@X c #468B1A",
"#X c #458C1B",
"$X c #56861E",
"%X c #40901B",
"&X c #73811F",
"*X c #4D9321",
"=X c #728E28",
"-X c #609A2B",
";X c #64992B",
":X c #6E982C",
">X c #70932B",
",X c #72932B",
"<X c #72952C",
"1X c #7E9029",
"2X c #78932C",
"3X c #7E8B31",
"4X c #5DA42D",
"5X c #57A037",
"6X c #63A42E",
"7X c #67AD2F",
"8X c #61AA31",
"9X c #62AA31",
"0X c #63AA31",
"qX c #66A931",
"wX c #65AA31",
"eX c #64AC33",
"rX c #6BAA32",
"tX c #6EAA32",
"yX c #70A832",
"uX c #73A832",
"iX c #74A832",
"pX c #71AC33",
"aX c #288343",
"sX c #298443",
"dX c #85932D",
"fX c #82952D",
"gX c #8D972B",
"hX c #89932D",
"jX c #8A932D",
"kX c #8C932D",
"lX c #89942D",
"zX c #8A942D",
"xX c #8B942D",
"cX c #8D952E",
"vX c #DCB208",
"bX c #EBC604",
"nX c #EBC704",
"mX c #ECC803",
"MX c #F0CE02",
"NX c #FFDD00",
"BX c #FFDF00",
"VX c #FFE000",
"CX c #FFE500",
"ZX c #FFE700",
"AX c #FFED00",
/* pixels */
"0XhXR.q.a.h.h.h.h.h.h.h.h.h.h.h.h.h.h.j.M.,.$., < 8 8 8 8 8 8 8 8 8 8 8 8 8 8 7 , $.,.M.j.h.h.h.h.h.h.h.h.h.h.h.h.h.h.d.r.D.^ _.",
"0XhXR.q.a.h.h.h.h.h.h.h.h.h.h.h.h.h.h.j.M.,.$., < 8 8 8 8 8 8 8 8 8 8 8 8 8 8 7 , $.,.M.j.h.h.h.h.h.h.h.h.h.h.h.h.h.h.d.r.D.^ _.",
"0XhXR.q.a.h.h.h.h.h.h.h.h.h.h.h.h.h.h.j.M.,.$., < 8 8 8 8 8 8 8 8 8 8 8 8 8 8 7 , $.,.M.j.h.h.h.h.h.h.h.h.h.h.h.h.h.h.d.r.D.^ _.",
"0XhXR.q.a.h.h.h.h.h.h.h.h.h.h.h.h.h.h.j.M.,.$., < 8 8 8 8 8 8 8 8 8 8 8 8 8 8 7 , $.,.M.j.h.h.h.h.h.h.h.h.h.h.h.h.h.h.d.r.D.^ _.",
"0XhXR.q.a.h.h.h.h.h.h.h.h.h.h.h.h.h.h.j.M.,.$., < 8 8 8 8 8 8 8 8 8 8 8 8 8 8 7 , $.,.M.j.h.h.h.h.h.h.h.h.h.h.h.h.h.h.d.r.D.^ _.",
"0XhXR.q.a.h.h.h.h.h.h.h.h.h.h.h.h.h.h.j.M.,.$., < 8 8 8 8 8 8 8 8 8 8 8 8 8 8 7 , $.,.M.j.h.h.h.h.h.h.h.h.h.h.h.h.h.h.d.r.D.^ _.",
"0XhXR.q.a.h.h.h.h.h.h.h.h.h.h.h.h.h.h.j.M.,.$., < 8 8 8 8 8 8 8 8 8 8 8 8 8 8 7 , $.,.M.j.h.h.h.h.h.h.h.h.h.h.h.h.h.h.d.r.D.^ _.",
"0XhXR.q.a.h.h.h.h.h.h.h.h.h.h.h.h.h.h.j.M.,.$., < 8 8 8 8 8 8 8 8 8 8 8 8 8 8 7 , $.,.M.j.h.h.h.h.h.h.h.h.h.h.h.h.h.h.d.r.D.^ _.",
"0XhXR.q.a.h.h.h.h.h.h.h.h.h.h.h.h.h.h.j.M.,.$., < 8 8 8 8 8 8 8 8 8 8 8 8 8 8 7 , $.,.M.j.h.h.h.h.h.h.h.h.h.h.h.h.h.h.d.r.D.^ _.",
"0XhXR.q.a.h.h.h.h.h.h.h.h.h.h.h.h.h.h.j.M.,.$., < 8 8 8 8 8 8 8 8 8 8 8 8 8 8 7 , $.,.M.j.h.h.h.h.h.h.h.h.h.h.h.h.h.h.d.r.D.^ _.",
"0XhXR.q.a.h.h.h.h.h.h.h.h.h.h.h.h.h.h.j.M.,.$., < 8 8 8 8 8 8 8 8 8 8 8 8 8 8 7 , $.,.M.j.h.h.h.h.h.h.h.h.h.h.h.h.h.h.d.r.D.^ _.",
"0XhXR.q.a.h.h.h.h.h.h.h.h.h.h.h.h.h.h.j.M.,.$., < 8 8 8 8 8 8 8 8 8 8 8 8 8 8 7 , $.,.M.j.h.h.h.h.h.h.h.h.h.h.h.h.h.h.d.r.D.^ _.",
"0XhXR.q.a.h.h.h.h.h.h.h.h.h.h.h.h.h.h.j.M.,.$., < 8 8 8 8 8 8 8 8 8 8 8 8 8 8 7 , $.,.M.j.h.h.h.h.h.h.h.h.h.h.h.h.h.h.d.r.D.^ _.",
"0XhXR.q.a.h.h.h.h.h.h.h.h.h.h.h.h.h.h.j.M.,.$., < 8 8 8 8 8 8 8 8 8 8 8 8 8 8 7 , $.,.M.j.h.h.h.h.h.h.h.h.h.h.h.h.h.h.d.r.D.^ _.",
"0XhXR.q.a.h.h.h.h.h.h.h.h.h.h.h.h.h.h.j.M.,.$., < 8 8 8 8 8 8 8 8 8 8 8 8 8 8 7 , $.,.M.j.h.h.h.h.h.h.h.h.h.h.h.h.h.h.d.r.D.^ _.",
"0XhXR.q.a.h.h.h.h.h.h.h.h.h.h.h.h.h.h.j.M.,.$., < 8 8 8 8 8 8 8 8 8 8 8 8 8 8 7 , $.,.M.j.h.h.h.h.h.h.h.h.h.h.h.h.h.h.d.r.D.^ _.",
"0XhXR.q.a.h.h.h.h.h.h.h.h.h.h.h.h.h.h.j.M.,.$., < 8 8 8 8 8 8 8 8 8 8 8 8 8 8 7 , $.,.M.j.h.h.h.h.h.h.h.h.h.h.h.h.h.h.d.r.D.^ _.",
"0XzXE.w.s.j.j.j.j.j.j.j.j.j.j.j.j.j.j.k.N.>.O.+ 4 5 5 5 5 5 5 5 5 5 5 5 5 5 5 4 + O.>.N.k.j.j.j.j.j.j.j.j.j.j.j.j.j.j.f.l.F.^ ).",
"7XgXQ.y.v.M.M.M.M.M.M.M.M.M.M.M.M.M.M.N.B.%.}   1 3 3 3 3 3 3 3 3 3 3 3 3 3 3 2   } %.B.N.M.M.M.M.M.M.M.M.M.M.M.M.M.M.b.z.S.~ (.",
"5X3XI.7.*.,.,.,.,.,.,.,.,.,.,.,.,.,.,.>.%.4.L.J.K.G.G.G.G.G.G.G.G.G.G.G.G.G.G.K.J.L.4.%.>.,.,.,.,.,.,.,.,.,.,.,.,.,.,.=.9.A.&X X",
"sX( P.{ @.$.$.$.$.$.$.$.$.$.$.$.$.$.$.O.| L.vXMXmXnXbXnXbXnXbXnXbXnXbXnXbXnXbXmXMXvXL.} O.$.$.$.$.$.$.$.$.$.$.$.$.$.$.o.X.C.=X6X",
"` N 9 X O , , , , , , , , , , , , , , +   J.MXAXZXCXCXCXCXCXCXCXCXCXCXCXCXCXCXZXAXMXJ.  + , , , , , , , , , , , , , , @ . L <XpX",
") B 0 ' : 7 7 7 7 7 7 7 7 7 7 7 7 7 7 4 2 K.mXZXVXBXBXBXBXBXBXBXBXBXBXBXBXBXBXVXZXmXK.1 4 7 7 7 7 7 7 7 7 7 7 7 7 7 7 * $ I ,XtX",
"_ / q ] > 8 8 8 8 8 8 8 8 8 8 8 8 8 8 5 3 H.nXCXBXNXNXNXNXNXNXNXNXNXNXNXNXNXNXBXCXbXG.3 5 8 8 8 8 8 8 8 8 8 8 8 8 8 8 - % U ,XtX",
"_ / q ] > 8 8 8 8 8 8 8 8 8 8 8 8 8 8 5 3 H.nXCXBXNXNXNXNXNXNXNXNXNXNXNXNXNXNXBXCXbXG.3 5 8 8 8 8 8 8 8 8 8 8 8 8 8 8 - % U ,XtX",
"_ / q ] > 8 8 8 8 8 8 8 8 8 8 8 8 8 8 5 3 H.nXCXBXNXNXNXNXNXNXNXNXNXNXNXNXNXNXBXCXbXG.3 5 8 8 8 8 8 8 8 8 8 8 8 8 8 8 - % U ,XtX",
"_ / q ] > 8 8 8 8 8 8 8 8 8 8 8 8 8 8 5 3 H.nXCXBXNXNXNXNXNXNXNXNXNXNXNXNXNXNXBXCXbXG.3 5 8 8 8 8 8 8 8 8 8 8 8 8 8 8 - % U ,XtX",
"_ / q ] > 8 8 8 8 8 8 8 8 8 8 8 8 8 8 5 3 H.nXCXBXNXNXNXNXNXNXNXNXNXNXNXNXNXNXBXCXbXG.3 5 8 8 8 8 8 8 8 8 8 8 8 8 8 8 - % U ,XtX",
"_ / q ] > 8 8 8 8 8 8 8 8 8 8 8 8 8 8 5 3 H.nXCXBXNXNXNXNXNXNXNXNXNXNXNXNXNXNXBXCXbXG.3 5 8 8 8 8 8 8 8 8 8 8 8 8 8 8 - % U ,XtX",
"_ / q ] > 8 8 8 8 8 8 8 8 8 8 8 8 8 8 5 3 H.nXCXBXNXNXNXNXNXNXNXNXNXNXNXNXNXNXBXCXbXG.3 5 8 8 8 8 8 8 8 8 8 8 8 8 8 8 - % U ,XtX",
"_ / q ] > 8 8 8 8 8 8 8 8 8 8 8 8 8 8 5 3 H.nXCXBXNXNXNXNXNXNXNXNXNXNXNXNXNXNXBXCXbXG.3 5 8 8 8 8 8 8 8 8 8 8 8 8 8 8 - % U ,XtX",
"_ / q ] > 8 8 8 8 8 8 8 8 8 8 8 8 8 8 5 3 H.nXCXBXNXNXNXNXNXNXNXNXNXNXNXNXNXNXBXCXbXG.3 5 8 8 8 8 8 8 8 8 8 8 8 8 8 8 - % U ,XtX",
"_ / q ] > 8 8 8 8 8 8 8 8 8 8 8 8 8 8 5 3 H.nXCXBXNXNXNXNXNXNXNXNXNXNXNXNXNXNXBXCXbXG.3 5 8 8 8 8 8 8 8 8 8 8 8 8 8 8 - % U ,XtX",
"_ / q ] > 8 8 8 8 8 8 8 8 8 8 8 8 8 8 5 3 H.nXCXBXNXNXNXNXNXNXNXNXNXNXNXNXNXNXBXCXbXG.3 5 8 8 8 8 8 8 8 8 8 8 8 8 8 8 - % U ,XtX",
"_ / q ] > 8 8 8 8 8 8 8 8 8 8 8 8 8 8 5 3 H.nXCXBXNXNXNXNXNXNXNXNXNXNXNXNXNXNXBXCXbXG.3 5 8 8 8 8 8 8 8 8 8 8 8 8 8 8 - % U ,XtX",
"_ / q ] > 8 8 8 8 8 8 8 8 8 8 8 8 8 8 5 3 H.nXCXBXNXNXNXNXNXNXNXNXNXNXNXNXNXNXBXCXbXG.3 5 8 8 8 8 8 8 8 8 8 8 8 8 8 8 - % U ,XtX",
"_ / q ] > 8 8 8 8 8 8 8 8 8 8 8 8 8 8 5 3 H.nXCXBXNXNXNXNXNXNXNXNXNXNXNXNXNXNXBXCXbXG.3 5 8 8 8 8 8 8 8 8 8 8 8 8 8 8 - % U ,XtX",
") B 0 ' : 7 7 7 7 7 7 7 7 7 7 7 7 7 7 4 2 K.mXZXVXBXBXBXBXBXBXBXBXBXBXBXBXBXBXVXZXmXK.1 4 7 7 7 7 7 7 7 7 7 7 7 7 7 7 * $ P ,XtX",
"` N 9 X O , , , , , , , , , , , , , , +   J.MXAXZXCXCXCXCXCXCXCXCXCXCXCXCXCXCXZXAXMXJ.  + , , , , , , , , , , , , , , @ o K >XtX",
"aX( P.{ @.$.$.$.$.$.$.$.$.$.$.$.$.$.$.O.} L.vXMXmXnXnXnXnXnXnXnXnXnXnXnXnXnXnXmXMXvXL.} O.$.$.$.$.$.$.$.$.$.$.$.$.$.$. ...Z.2XrX",
"5X3XI.7.*.,.,.,.,.,.,.,.,.,.,.,.,.,.,.>.%.4.L.J.K.H.H.H.H.H.H.H.H.H.H.H.H.H.H.K.J.L.4.%.>.,.,.,.,.,.,.,.,.,.,.,.,.,.,.&.8.U.dXwX",
"7XgXQ.y.v.M.M.M.M.M.M.M.M.M.M.M.M.M.M.N.B.%.}   2 3 3 3 3 3 3 3 3 3 3 3 3 3 3 2   | %.B.N.M.M.M.M.M.M.M.M.M.M.M.M.M.M.v.y.~.xX8X",
"0XzXE.w.s.j.j.j.j.j.j.j.j.j.j.j.j.j.j.k.N.>.O.+ 4 5 5 5 5 5 5 5 5 5 5 5 5 5 5 4 + O.>.N.k.j.j.j.j.j.j.j.j.j.j.j.j.j.j.s.w.E.lX9X",
"0XhXR.q.a.h.h.h.h.h.h.h.h.h.h.h.h.h.h.j.M.,.$., < 8 8 8 8 8 8 8 8 8 8 8 8 8 8 7 , $.,.M.j.h.h.h.h.h.h.h.h.h.h.h.h.h.h.a.q.R.lX9X",
"0XhXR.q.a.h.h.h.h.h.h.h.h.h.h.h.h.h.h.j.M.,.$., < 8 8 8 8 8 8 8 8 8 8 8 8 8 8 7 , $.,.M.j.h.h.h.h.h.h.h.h.h.h.h.h.h.h.a.q.R.lX9X",
"0XhXR.q.a.h.h.h.h.h.h.h.h.h.h.h.h.h.h.j.M.,.$., < 8 8 8 8 8 8 8 8 8 8 8 8 8 8 7 , $.,.M.j.h.h.h.h.h.h.h.h.h.h.h.h.h.h.a.q.R.lX9X",
"0XhXR.q.a.h.h.h.h.h.h.h.h.h.h.h.h.h.h.j.M.,.$., < 8 8 8 8 8 8 8 8 8 8 8 8 8 8 7 , $.,.M.j.h.h.h.h.h.h.h.h.h.h.h.h.h.h.a.q.R.lX9X",
"0XhXR.q.a.h.h.h.h.h.h.h.h.h.h.h.h.h.h.j.M.,.$., < 8 8 8 8 8 8 8 8 8 8 8 8 8 8 7 , $.,.M.j.h.h.h.h.h.h.h.h.h.h.h.h.h.h.a.q.R.lX9X",
"0XhXR.q.a.h.h.h.h.h.h.h.h.h.h.h.h.h.h.j.M.,.$., < 8 8 8 8 8 8 8 8 8 8 8 8 8 8 7 , $.,.M.j.h.h.h.h.h.h.h.h.h.h.h.h.h.h.a.q.R.lX9X",
"0XhXR.q.a.h.h.h.h.h.h.h.h.h.h.h.h.h.h.j.M.,.$., < 8 8 8 8 8 8 8 8 8 8 8 8 8 8 7 , $.,.M.j.h.h.h.h.h.h.h.h.h.h.h.h.h.h.a.q.R.lX9X",
"0XhXR.q.a.h.h.h.h.h.h.h.h.h.h.h.h.h.h.j.M.,.$., < 8 8 8 8 8 8 8 8 8 8 8 8 8 8 7 , $.,.M.j.h.h.h.h.h.h.h.h.h.h.h.h.h.h.a.q.R.lX9X",
"0XhXR.q.a.h.h.h.h.h.h.h.h.h.h.h.h.h.h.j.M.,.$., < 8 8 8 8 8 8 8 8 8 8 8 8 8 8 7 , $.,.M.j.h.h.h.h.h.h.h.h.h.h.h.h.h.h.a.q.R.lX9X",
"0XhXR.q.a.h.h.h.h.h.h.h.h.h.h.h.h.h.h.j.M.,.$., < 8 8 8 8 8 8 8 8 8 8 8 8 8 8 7 , $.,.M.j.h.h.h.h.h.h.h.h.h.h.h.h.h.h.a.q.R.lX9X",
"0XhXR.q.a.h.h.h.h.h.h.h.h.h.h.h.h.h.h.j.M.,.$., < 8 8 8 8 8 8 8 8 8 8 8 8 8 8 7 , $.,.M.j.h.h.h.h.h.h.h.h.h.h.h.h.h.h.a.q.R.lX9X",
"0XhXR.q.a.h.h.h.h.h.h.h.h.h.h.h.h.h.h.j.M.,.$., < 8 8 8 8 8 8 8 8 8 8 8 8 8 8 7 , $.,.M.j.h.h.h.h.h.h.h.h.h.h.h.h.h.h.a.q.R.lX9X",
"0XhXR.q.a.h.h.h.h.h.h.h.h.h.h.h.h.h.h.j.M.,.$., < 8 8 8 8 8 8 8 8 8 8 8 8 8 8 7 , $.,.M.j.h.h.h.h.h.h.h.h.h.h.h.h.h.h.a.q.R.lX9X",
"0XhXR.q.a.h.h.h.h.h.h.h.h.h.h.h.h.h.h.j.M.,.$., < 8 8 8 8 8 8 8 8 8 8 8 8 8 8 7 , $.,.M.j.h.h.h.h.h.h.h.h.h.h.h.h.h.h.a.q.R.lX9X",
"0XzX!.e.i.g.g.g.g.g.g.g.g.g.g.g.g.g.g.g.n.:.#.# ; 6 6 6 6 6 6 6 6 6 6 6 6 6 6 ; # #.:.n.g.g.g.g.g.g.g.g.g.g.g.g.g.g.g.p.e.W.jX9X",
"eXcX/.u.t.x.x.x.x.x.x.x.x.x.x.x.x.x.x.c.m.0.+.& = [ [ [ [ [ [ [ [ [ [ [ [ [ [ = & +.0.m.c.x.x.x.x.x.x.x.x.x.x.x.x.x.x.t.u.^.kX8X",
"4X1XY.;.2.5.5.5.5.5.5.5.5.5.5.5.5.5.5.6.3.<.V.V C Z Z Z Z Z Z Z Z Z Z Z Z Z Z C V V.<.3.6.5.5.5.5.5.5.5.5.5.5.5.5.5.5.1.-.T.fXqX",
"*X$XQ S H J J J J J J J J J J J J J J G D W Y E T R R R R R R R R R R R R R R T E Y W D G J J J J J J J J J J J J J J F A ! :XyX",
".X`.k y s d d d d d d d d d d d d d d a t l '.%X|.}.}.}.}.}.}.}.}.}.}.}.}.}.}.|.%X'.l t a d d d d d d d d d d d d d d p r z -XiX",
"+X].b u f h h h h h h h h h h h h h h g u b [.#XoXXXXXXXXXXXXXXXXXXXXXXXXXXXXXoX#X[.b u g h h h h h h h h h h h h h h i w m ;XuX",
"@X{.n j c v v v v v v v v v v v v v v c j n {.@XOXOXOXOXOXOXOXOXOXOXOXOXOXOXOXOX@X{.n j c v v v v v v v v v v v v v v x e M ;XuX"
};
