/* XPM */
static char *result[] = {
/* columns rows colors chars-per-pixel */
"64 64 92 1 ",
"  c #18733F",
". c #1B733F",
"X c #25763E",
"o c #25773E",
"O c #27773E",
"+ c #006647",
"@ c #006B46",
"# c #006C45",
"$ c #006C46",
"% c #0C6F47",
"& c #006A48",
"* c #107045",
"= c #137046",
"- c #157144",
"; c #147045",
": c #197245",
"> c #1A7244",
", c #327B41",
"< c #337B41",
"1 c #387E41",
"2 c #397E41",
"3 c #397F41",
"4 c #3A7F40",
"5 c #3A7F41",
"6 c #387D42",
"7 c #397E42",
"8 c #398414",
"9 c #3F8715",
"0 c #3E8616",
"q c #3E8617",
"w c #3F8617",
"e c #378126",
"r c #3C8427",
"t c #3D8427",
"y c #3E8427",
"u c #3C8328",
"i c #3C813A",
"p c #3F833B",
"a c #42880E",
"s c #418716",
"d c #458A12",
"f c #468B12",
"g c #478B12",
"h c #458A14",
"j c #438918",
"k c #428819",
"l c #438819",
"z c #438919",
"x c #458918",
"c c #448919",
"v c #44891A",
"b c #4C8D1E",
"n c #51911B",
"m c #50901F",
"M c #51901F",
"N c #428726",
"B c #4F8F20",
"V c #4C8D22",
"C c #4C8C29",
"Z c #508F20",
"A c #589424",
"S c #49883D",
"D c #5E9731",
"F c #679E2C",
"G c #679F2C",
"H c #679E2E",
"J c #689F2B",
"K c #689F2C",
"L c #659C33",
"P c #639A35",
"I c #639B36",
"U c #649B35",
"Y c #669D34",
"T c #669C37",
"R c #6BA12A",
"E c #69A02D",
"W c #6DA32F",
"Q c #70A52F",
"! c #72A72E",
"~ c #73A72E",
"^ c #73A72F",
"/ c #73A82E",
"( c #74A82E",
") c #76AA2F",
"_ c #6DA231",
"` c #6FA430",
"' c #70A430",
"] c #70A530",
"[ c #71A631",
"{ c #72A631",
"} c #73A731",
"| c #72A632",
/* pixels */
"````````````````````````````````````````````````````````````````",
"````````````````````````````````````````````````````````````````",
"````````````````````````````````````````````````````````````````",
"````````````````````````````````````````````````````````````````",
"````````````````````````````````````````````````````````````````",
"````````````````````````````````````````````````````````````````",
"````````````````````````````````````````````````````````````````",
"````````````````````````````````````````````````````````````````",
"````````````````````````````````````````````````````````````````",
"```````````````````````````````''''''''''''''''''```````````````",
"`````````````````````````````'[{{{{{{{{{{{{{{{{{{['`````````````",
"````````````````````````````'WEFGKKKKKKKKKKKKKKGFEW'````````````",
"````````````````````````````[EAbBZZZZZZZZZZZZZZBbAE[````````````",
"```````````````````````````'{Fb80wwwwwwwwwwwwww08bF{'```````````",
"```````````````````````````'{GB0kllllllllllllllk0BG{'```````````",
"```````````````````````````'{KZwlvvvvvvvvvvvvvvlwZK{'```````````",
"```````````````````````````'{KZwlvvvvvvvvvvvvvvlwZK{'```````````",
"```````````````````````````'{KZwlvvvvvvvvvvvvvvlwZK{'```````````",
"```````````````````````````'{KZwlvvvvvvvvvvvvvvlwZK{'```````````",
"```````````````````````````'{KZwlvvvvvvvvvvvvvvlwZK{'```````````",
"```````````````````````````'{KZwlvvvvvvvvvvvvvvlwZK{'```````````",
"```````````````````````````'{KZwlvvvvvvvvvvvvvvlwZK{'```````````",
"```````````````````````````'{KZwlvvvvvvvvvvvvvvlwZK{'```````````",
"```````````````````````````'{KZwlvvvvvvvvvvvvvvlwZK{'```````````",
"```````````````````````````'{KZwlvvvvvvvvvvvvvvlwZK{'```````````",
"```````````````````````````'{KZwlvvvvvvvvvvvvvvlwZK{'```````````",
"```````````````````````````'{KZwlvvvvvvvvvvvvvvlwZK{'```````````",
"```````````````````````````'{KZwlvvvvvvvvvvvvvvlwZK{'```````````",
"```````````````````````````'{KZwlvvvvvvvvvvvvvvlwZK{'```````````",
"``````````]]]]]]]]]]]]]]]]]]}KZwlvvvvvvvvvvvvvvlwZK{'```````````",
"`````````]!/~~~~~~~~~~~~~~~()RMqlvvvvvvvvvvvvvvlwZK{'```````````",
"````````]_YPUUUUUUUUUUUUUUUUTDVszvvvvvvvvvvvvvvlwZK{'```````````",
"```````]!YS<24444444444444457iNhcvvvvvvvvvvvvvvlwZK{'```````````",
"```````]/P<+@##############$&.ugxvvvvvvvvvvvvvvlwZK{'```````````",
"```````]~U1@*--------------;%otfxvvvvvvvvvvvvvvlwZK{'```````````",
"```````]~U4#->>>>>>>>>>>>>>:=OyfxvvvvvvvvvvvvvvlwZK{'```````````",
"```````]~U4#->>>>>>>>>>>>>>:=OyfxvvvvvvvvvvvvvvlwZK{'```````````",
"```````]~U4#->>>>>>>>>>>>>>:=OyfxvvvvvvvvvvvvvvlwZK{'```````````",
"```````]~U4#->>>>>>>>>>>>>>:=OyfxvvvvvvvvvvvvvvlwZK{'```````````",
"```````]~U4#->>>>>>>>>>>>>>:=OyfxvvvvvvvvvvvvvvlwZK{'```````````",
"```````]~U4#->>>>>>>>>>>>>>:=OyfxvvvvvvvvvvvvvvlwZK{'```````````",
"```````]~U4#->>>>>>>>>>>>>>:=OyfxvvvvvvvvvvvvvvlwZK{'```````````",
"```````]~U4#->>>>>>>>>>>>>>:=OyfxvvvvvvvvvvvvvvlwZK{'```````````",
"```````]~U4#->>>>>>>>>>>>>>:=OyfxvvvvvvvvvvvvvvlwZK{'```````````",
"```````]~U4#->>>>>>>>>>>>>>:=OyfxvvvvvvvvvvvvvvlwZK{'```````````",
"```````]~U4#->>>>>>>>>>>>>>:=OyfxvvvvvvvvvvvvvvlwZK{'```````````",
"```````]~U4#->>>>>>>>>>>>>>:=OyfxvvvvvvvvvvvvvvlwZK{'```````````",
"```````]~U4#->>>>>>>>>>>>>>:=OyfxvvvvvvvvvvvvvvlwZK{'```````````",
"```````]~U4#->>>>>>>>>>>>>>:=OyfxvvvvvvvvvvvvvvlwZK{'```````````",
"```````]~U1@*--------------;%Xrdjllllllllllllllk0BG{'```````````",
"```````]/P,+@##############$& ea9wwwwwwwwwwwwww08bF{'```````````",
"```````]!YS,14444444444444436pCnmZZZZZZZZZZZZZZBbAE[````````````",
"````````]_YPUUUUUUUUUUUUUUUUILHJKKKKKKKKKKKKKKKGFEW'````````````",
"`````````]!/~~~~~~~~~~~~~~~~~^{|{{{{{{{{{{{{{{{{{['`````````````",
"``````````]]]]]]]]]]]]]]]]]]Q]'''''''''''''''''''```````````````",
"````````````````````````````````````````````````````````````````",
"````````````````````````````````````````````````````````````````",
"````````````````````````````````````````````````````````````````",
"````````````````````````````````````````````````````````````````",
"````````````````````````````````````````````````````````````````",
"````````````````````````````````````````````````````````````````",
"````````````````````````````````````````````````````````````````",
"````````````````````````````````````````````````````````````````",
"````````````````````````````````````````````````````````````````"
};
