/* XPM */
static char *result[] = {
/* columns rows colors chars-per-pixel */
"64 64 193 2 ",
"   c #000000",
".  c #090006",
"X  c #1D0000",
"o  c #000016",
"O  c #02001A",
"+  c #0E031E",
"@  c #160A1F",
"#  c #1A081C",
"$  c #2E0503",
"%  c #3A1E0F",
"&  c #27161F",
"*  c #3B221D",
"=  c #000123",
"-  c #0D0D27",
";  c #000329",
":  c #010C2B",
">  c #170C21",
",  c #07112C",
"<  c #1E1120",
"1  c #12152B",
"2  c #16192E",
"3  c #1C1B2D",
"4  c #0B1631",
"5  c #1B1F33",
"6  c #241521",
"7  c #281721",
"8  c #251925",
"9  c #291923",
"0  c #211E2D",
"q  c #1D2134",
"w  c #2E2022",
"e  c #26212E",
"r  c #2C242B",
"t  c #302123",
"y  c #3B2A26",
"u  c #31262B",
"i  c #362A2D",
"p  c #3C2E2E",
"a  c #3C302F",
"s  c #232332",
"d  c #292733",
"f  c #2C2A35",
"g  c #272A3B",
"h  c #2B2D3B",
"j  c #332D35",
"k  c #382C31",
"l  c #2A303F",
"z  c #3C3334",
"x  c #32323D",
"c  c #3B363C",
"v  c #4C1E00",
"b  c #492805",
"n  c #542C00",
"m  c #5E3E09",
"M  c #482A17",
"N  c #593C1D",
"B  c #4F3624",
"V  c #42332E",
"C  c #583C20",
"Z  c #443432",
"A  c #493633",
"S  c #453835",
"D  c #4C3C36",
"F  c #4B3E3B",
"G  c #543D31",
"H  c #503F39",
"J  c #62420E",
"K  c #5D4121",
"L  c #4E423C",
"P  c #524137",
"I  c #5A4534",
"U  c #5D4837",
"Y  c #544339",
"T  c #59463B",
"R  c #5D493B",
"E  c #644723",
"W  c #684A24",
"Q  c #664A2B",
"!  c #6C502E",
"~  c #624932",
"^  c #694E30",
"/  c #624D3D",
"(  c #6E5334",
")  c #66513E",
"_  c #6A533E",
"`  c #705537",
"'  c #72593E",
"]  c #2B3140",
"[  c #353642",
"{  c #363945",
"}  c #3B3B45",
"|  c #3C3E49",
" . c #433D40",
".. c #3F404B",
"X. c #464247",
"o. c #4B4140",
"O. c #43434C",
"+. c #49474E",
"@. c #4A484E",
"#. c #544640",
"$. c #564943",
"%. c #5C4B42",
"&. c #524949",
"*. c #464751",
"=. c #474952",
"-. c #4E4D54",
";. c #4F4F58",
":. c #504E55",
">. c #535156",
",. c #535359",
"<. c #58565B",
"1. c #5B595E",
"2. c #644F41",
"3. c #655141",
"4. c #6C5540",
"5. c #6C5747",
"6. c #745B42",
"7. c #785F43",
"8. c #715C4C",
"9. c #7A6043",
"0. c #7A644E",
"q. c #7C6752",
"w. c #756458",
"e. c #5E5D62",
"r. c #625F62",
"t. c #636165",
"y. c #6B6361",
"u. c #666569",
"i. c #69676B",
"p. c #6C6A6E",
"a. c #756A64",
"s. c #6F6D71",
"d. c #716E71",
"f. c #757274",
"g. c #797575",
"h. c #7B7877",
"j. c #797679",
"k. c #7C797A",
"l. c #836F5A",
"z. c #85715E",
"x. c #887563",
"c. c #847C78",
"v. c #88807B",
"b. c #978777",
"n. c #9B8C7F",
"m. c #827F80",
"M. c #858283",
"N. c #898586",
"B. c #8D898A",
"V. c #9A8D83",
"C. c #938E8E",
"Z. c #94908F",
"A. c #969291",
"S. c #9A9594",
"D. c #9D9896",
"F. c #9F9A98",
"G. c #A8998A",
"H. c #A39B95",
"J. c #A29D9B",
"K. c #AFA194",
"L. c #A6A09E",
"P. c #ACA299",
"I. c #B4A698",
"U. c #A7A2A0",
"Y. c #AAA4A2",
"T. c #AFA9A6",
"R. c #B1ABA7",
"E. c #B8ACA2",
"W. c #B3ADAA",
"Q. c #BCB1A5",
"!. c #B7B0AD",
"~. c #B9B3AF",
"^. c #BCB5B2",
"/. c #BFB8B4",
"(. c #C4B7A9",
"). c #C1BAB6",
"_. c #CABFB4",
"`. c #C4BDB9",
"'. c #CCC1B6",
"]. c #C7C0BB",
"[. c #C9C1BC",
"{. c #D2C7BD",
"}. c #D5CABE",
"|. c #D3CCC3",
" X c #DDD4CA",
".X c #E1D8CE",
"XX c #E5DDD3",
"oX c #EBE2D7",
"OX c #EEE5DC",
"+X c #F0E7DD",
"@X c #F2E9DE",
"#X c #F9EFE4",
"$X c #FCF2E7",
/* pixels */
"/./././././././.).).).`.`.`./.W.J.A.A.J.W.^.`.`.`.`.`.`.).).`.).`.).`.).`.`.).`.`.`./.W.J.A.A.J.W./.`.`.`.)././././././././././.",
"/./././././././.).).).).`.)./.R.F.A.A.J.W.^.`.`.`.^.`.^./././.).)././././././.`.`.`./.T.F.A.A.J.T././.`.)./.`./.)./././././././.",
"/./././././././.^./.^.^././.!.Y.S.C.B.D.Y.!.^.^.^.^.^.^.^.^.^.^.^.^.^.~.^.^.^.^././.!.Y.D.B.C.S.Y.!././.^.^.^.^././././././././.",
"/././././././.^.W.W.T.R.W.W.T.J.C.M.N.C.J.T.W.!.W.T.W.T.W.W.W.W.W.W.W.W.W.W.W.W.W.W.R.F.C.M.M.C.J.T.!.W.W.T.W.!.^.^././././././.",
"/./././.).).^.W.Y.U.J.J.U.Y.J.S.M.j.j.M.A.J.Y.Y.U.U.U.U.U.U.U.U.U.U.U.U.U.U.U.U.Y.Y.J.S.M.j.j.M.A.J.Y.U.J.J.J.T.!.^././././././.",
"/././.).).)./.R.U.S.A.A.S.S.S.N.j.p.s.j.N.A.D.D.F.S.S.A.S.S.A.S.S.S.S.S.A.S.S.S.F.S.A.N.j.p.s.j.B.A.S.S.A.A.S.U.W.^.`./.)./././.",
"/././.).).)./.R.F.A.N.N.N.N.m.j.u.e.e.i.j.M.N.B.N.N.N.N.N.N.N.N.M.M.M.N.N.N.N.N.N.N.m.j.p.e.e.i.j.M.B.N.N.N.A.J.T.^./.`././././.",
")./.).).).).^.R.J.S.N.M.k.j.s.t.e.;.;.e.u.s.f.g.f.f.f.f.f.d.d.s.p.p.p.p.s.f.f.f.s.s.t.e.-.| O.;.e.s.j.k.m.N.A.J.W.^.`.`.`./.)./.",
").).).).].)./.!.U.S.B.k.f.u.<.-.*.......,.e.e.e.t.1.e.e.e.e.e.;.........>.1.e.<.-.O...q , ; 4 l O.,.u.f.m.B.S.Y.W./.`.`./.`./.`.",
").).).).`.)./.W.U.F.N.j.u.;.{ [ [ { { ........O.O.O.O.O.....| { l 5 q ] ....X...x q 2 : O : : 2 s { >.u.j.N.F.Y.W./.`.`.`./.`./.",
"/.^.^.^././.~.T.J.Z.m.s.<.[ 2 2 f c c c l x j f f d f d f f c X.;.,.e.=...f h c @.>.1.1.1.1.<.@.x s { >.s.m.Z.J.T.!./.^.^.^.^.^.",
"T.T.T.T.W.R.Y.J.Z.M.s.e.+.h 2 r z L L L L S S a f q q 0 9 y $.a.N.S.S.m.1.h h <.h.C.H.H.H.D.B.h.<.x 5 | <.s.m.Z.F.Y.W.W.T.T.T.T.",
"F.F.F.F.J.J.S.B.c.i.<.=.| l g z L / ) / ) R T L c h g r % B w.V.Q.[.].P.k.....f.L.].}.}.|.[.~.H.h.+.: 4 | 1.p.c.B.S.J.J.F.F.F.F.",
"Z.Z.Z.A.S.A.B.k.i.>.} l l ] [ o.%.4.6.6.6.6.4.%.L [ x k b K a.K.{.oXXX].B...O.v.^. X+X@X@XoX X^.C.<.=   : } :.i.k.C.A.A.A.C.C.A.",
"Z.Z.Z.A.S.A.B.j.e.} 1 , s x F $.3.6.9.9.9.9.6.) o.[ c V n Q x.I.}.oXXX].B.@.@.v.^..X@X#X$X#XoX[.H.t.o     , { e.k.B.A.S.A.C.C.A.",
"F.F.F.F.J.J.S.M.t.} ; = d c o.%.3.' 7.9.9.9.6.3.%.F F P N ! z.G.Q.}.}.E.v.&.&.v.P.'. XoX#X$X+X}.J.y..     = | u.M.A.J.J.J.F.F.F.",
"R.T.T.W.W.W.U.C.s. .2 > k  .T 2.4.4.l.` ' 7.' _ %.H #.T ~ ( q.x.G.K.K.V.a.$.#.w.c.G.(.}.oX#X+X XP.a.$     - +.d.C.J.W.W.W.T.T.T.",
"^.~.^./././.W.S.j.-.5 7 A  .R _ 4.4.6.6.7.' 6.4./ T T / _ 4.7.q.l.x.z.w.5.%.T T ^ 0.b.Q. X+XOX|.P.w.%     3 -.g.D.W.).).).^.^.~.",
"/./.`.`.|.`.^.F.j.;.0 7 A T / _ 4.4.l.6.6.6.6._ / / / _ 4.6.6.` ! W E Q ~ 2.~ C v n q.G.'..X.X'.G.w.M X   3 ;.k.J.~.`.[.`.).).).",
"/.`./.].`.`.^.J.c.-.3 & A U / _ 4.7.` 6.6.6.6._ / / / / 4.6.6.( W J m K G / T N v n ' b.I._._.Q.V.w.B $ . 3 :.k.J.~.`.[.`.).).).",
"`././.`.`.`.!.F.k.:.0 7 Z T / _ 4.4.6.6.7.6.6.4.3./ / 2.4.6.6.' ( ! ^ ^ / / / ~ K E ' x.n.G.G.V.x.5.G * # 3 :.k.J.~.`.`.`.)./.).",
"/./././.`.`.!.F.k.-.3 7 Z T / _ 4.6.6.6.7.6.4.4./ R R / 4.4.6.6.6.6.4.4./ R T / _ ' 7.q.l.z.x.q.8.2.T V < 8 -.k.H.~.`.`.).)././.",
"/././.`.`.`.!.F.k.:.0 & Z H / / 4.6.6.7.7.6.6._ / T R / 4.6.6.7.7.6.6.4./ R R 2.3.6.6.( ! W E Q ~ / Y Z 9 0 -.k.F.W.).`.)./././.",
"/./././.`.`.!.F.k.-.3 < V H T / 4.6.6.7.7.6.4._ R T T / 3.4.6.6.6.6.4.4.R T Y / 4.6.6.( W J m N G I H Z 6 3 ;.k.F.^.`.`.)./././.",
"/././.`.`.`.~.F.k.;.2 > i D Y / _ 4.6.7.7.6.6./ / H G R _ 4.7.7.7.6.6./ R H H T _ 6.6.' ` ! ^ ~ I Y D k > 3 :.k.F.W.`.`.)./././.",
"/./././.`./.!.F.k.;.3 = u S H R ) 6.7.7.7.6.6./ H H D T ) 4.7.7.7.6.6./ T D H T / 6.6.6.7.6.4.) R H S u + 3 :.k.F.!.`.`.).)././.",
"/././.`.`.`.!.F.k.:.3 + u S H T 2.6.6.7.7.6.6./ T D H T ) 6.6.7.7.6.6.2.T D D T 2.6.6.7.7.6.6._ R P S u + 3 :.k.F.!.`.`.)./././.",
"/./././.`.`.!.F.k.-.3 # i D G / _ 4.6.7.6.6.6.) T P P R / 6.6.7.7.6.4.4.T P P R / 6.7.7.7.6.4._ / P S u > 3 :.k.F.!.`.`.)./././.",
"/./././.].`.!.F.k.:.3 < V H ~ 2._ 6.6.7.6.7.6.) R T Y / 3.6.6.7.6.6.6._ / T T R _ 4.6.6.6.6.6._ / U P p < 3 :.k.J.!.`.`.)./././.",
"/././.`.`.`.!.F.k.-.3 6 Z H / / _ 6.6.7.6.6.6._ 3.T R / _ 6.6.6.7.6.6._ / T T ) _ 6.6.6.6.6.6.4.) R Y Z 6 0 :.k.F.!.`.`.).)././.",
"/./././.`./.~.F.k.-.0 9 A H 2.) 4.6.6.6.6.6.6.2.2.R R / 3.6.6.7.6.6.6.3.2.R R 3.4.6.6.7.6.6.6.4._ / T Z 9 3 -.k.F.W.`.`.)./././.",
"/././.`.`.`.!.F.k.-.3 9 A T / 4.4.6.6.6.7.6.6.4./ / / 2._ 6.6.6.6.7.6.4./ R / / 4.6.6.7.6.6.4.4._ / R Z 7 0 -.k.F.~.`.`.)./././.",
"/./.).).`.`.W.F.j.:.0 9 Z T / ) 4.6.6.9.9.6.6.4./ 2.R 3.4.4.6.6.7.6.6._ / / R 2.4.4.9.9.6.6.4.4._ / T A 9 0 -.k.F.!.`.`.`./././.",
"/././.).`.`.!.F.k.:.0 7 A T / ) 4.4.6.6.6.6.6.4./ R R / 4.6.6.6.7.6.6.4./ / / / 4.6.6.6.9.6.6.4._ / T A 7 3 -.k.F.!.`.`.).)././.",
"/././.).`.`.W.J.k.:.0 < V H / / 4.6.6.9.6.6.4._ / R R ) 4.6.6.7.6.6.4._ / R R / 4.4.6.6.6.9.5._ / / Y Z 6 3 -.k.F.!.`.`.)./././.",
"/././.`.`.).!.F.j.:.0 < V H T / ) 6.6.6.9.6.6.) R T T R 4.4.6.7.7.6.6.3.R T Y R 4.4.7.6.6.6.6._ / T H p & 3 :.k.F.!.).`.)./././.",
"/././.).`.`.!.F.k.:.3 > i F H / ) 6.6.9.6.6.4.3.T P P T ) 6.7.6.9.6.6.) T P P R ) 6.7.7.7.6.4._ / Y D i @ 3 -.k.F.!.`.[.)./././.",
"/./.).).`.`.!.J.k.:.3 + u S H / ) 6.6.9.9.6.6.) T D L T ) 4.6.7.6.9.4.) T D D T ) 4.6.7.7.7.6._ U P S u + 2 >.k.F.!.`.`.).)././.",
"/././.).`.`.!.F.j.:.1 + u S H T 3.6.6.6.9.6.4.) T P D T ) 6.6.7.9.6.4.) T F D T ) 6.6.9.7.6.4.) R P S u + 3 -.k.F.!.`.`.)./././.",
").).).).`.`.!.H.c.:.2 > i D G / ) 4.6.9.9.6.6.) T L Y T 3.4.6.7.9.6.6.) T Y Y T 3.4.6.6.7.6.6._ R Y D i @ 3 -.k.J.~.`.`.).)./.).",
").).).`.[.[.^.J.k.:.3 > V H ~ 2._ 6.6.9.6.6.4.3.R T T R 4.6.7.6.6.6.6.3.R T Y / 3.6.6.6.7.6.4._ / T H V > 3 ;.k.J.~.`.[.`.`.).).",
").).).).[.`.!.J.k.:.3 6 Z H / / 4.6.6.6.9.6.6._ / R T / 4.4.6.6.6.6.6.4./ T R / _ 6.6.6.7.6.6.4./ / H Z 6 3 ;.j.J.~.].`.`.).).).",
"^.^.^./.).).W.S.k.-.0 9 Z T / _ _ 6.6.6.9.6.6._ 2.R R %.4.4.7.7.7.6.4.4.2./ / 2.3.4.6.7.6.6.6.4._ / T Z 9 e ;.j.S.W.).)./.^./.^.",
"T.T.T.T.W.W.U.C.d.+.s u A T / _ 4.6.6.9.6.6.6.4.) R / ) 4.6.6.6.6.6.6.4./ / R / 4.6.6.7.6.6.6.4.) / T A u s =.f.C.L.W.W.T.T.T.T.",
"F.F.F.F.J.J.S.m.i.*.d k D T / _ 4.4.6.6.6.6.4.4.) R R ) _ ' 6.6.6.6.4.4.) / / / 4.6.6.7.7.6.6._ _ / T A i f *.p.m.S.J.J.J.F.F.F.",
"A.C.C.A.S.A.B.k.e.O.f k D T / _ 4.6.6.6.9.6.6.4.) R R 3._ 6.6.6.6.9.6.4./ R R 2._ 6.6.6.7.6.6.4.) / H H k f  .r.k.B.A.A.Z.C.Z.Z.",
"C.C.A.A.S.S.B.j.r.O.f k S Y R ) 4.6.6.9.9.6.6.) ) T T ) _ 6.6.9.6.6.6._ / T R / _ 6.6.7.6.6.6.4./ / T D i f *.e.k.B.S.S.Z.Z.Z.Z.",
"F.F.F.J.J.J.S.m.i.*.d u S H T ) 4.6.6.9.6.9.6.) R T T / _ 6.6.7.9.6.6.3./ T T / _ 6.6.7.7.6.6._ / / H A d d *.p.M.A.J.J.J.F.F.F.",
"T.T.T.W.!.W.U.C.d.=.s 8 k D Y / _ 6.9.9.9.9.6._ U P P R _ 6.9.9.9.7.6._ U P P R _ 6.7.7.7.7.6.' / H H V 8 s -.s.C.U.W.W.R.T.T.T.",
"^.^.^./.)./.W.S.k.;.3 > i D P / _ 6.9.9.9.9.6.) R P L U ) 6.7.9.9.7.6.) U P L I ) ' 7.7.7.6.6.3./ G S u > 3 -.j.S.W.).)././.^.^.",
"`././.`.[.`.^.F.k.:.1 O r z D I ) _ ' ' ' 4.4.R P L L P R _ ' 9.' ' _ / P L P P / 4.6.6.6.6.4./ T D Z 0 O 1 :.k.J.~.`.[.`.)./.).",
"/./.`.`.[.`.^.F.k.*.o   O r p A Y R R / R U I P a i i a L I U U R U I P a u i a G Y U R / / R H A p u +   o +.j.J.~.`.[.`.).).).",
"/.)./.`.].`.!.F.f.}       o < u a S P D V y u w 6 @ @ 6 w y y y y y y t & @ @ < w y y V S S S V w < o        .j.F.W.`.[.`.).)./.",
"/././.`.`.`.!.S.g.O.    o 1 3 e f x f f f e 0 q 3 2 2 0 0 e e s s e e e 3 3 3 3 3 e r d h [ j f d 3 1 o     X.g.D.^.`.`.)./././.",
"/./././.`.`.!.L.M.r.O.} +.:.-.-.......*.@.-.;.;.-.>.-.>.-.-.-.-.-.-.-.-.;.>.-.;.;.;.-.+.....| *.=.-.>.=.| O.r.m.J.!.`.`.)./././.",
"/././.`.`.`.!.Y.S.M.g.g.j.k.h.d.i.t.e.u.d.g.j.m.h.h.h.h.h.h.h.k.j.k.k.h.h.k.k.k.k.k.g.s.i.e.t.i.d.j.k.j.g.g.m.S.Y.^.).).)./././.",
"/././.).).).^.W.Y.J.J.D.J.J.D.C.m.j.j.m.C.S.F.F.F.F.F.F.F.F.D.D.D.D.D.D.F.F.F.F.F.F.D.C.m.k.j.m.C.D.J.J.H.D.J.Y.W./.).)././././.",
"/././././.).^.^.~.!.W.^.~.!.W.J.S.B.B.S.U.W.!.^.~.!.!.!.!.!.~.!.!.!.!.!.!.!.!.!.!.^.W.Y.A.B.B.S.U.R.!.^.!.!.~.~.^./././././././.",
"/././././././.).).`.`.`.[.`.).W.J.S.A.J.!./.].[.].`.`.).`.`.`.).`.`.`.`.`.`.`.`.[.`./.W.L.A.A.J.R.).`.`.`.`.).).).^././././././.",
"/./././.^././.).).`.`.'.[.`.).W.J.S.A.U.W./.[.[.].`.`.`.`.`.`.].`.`.`.`.`.].`.].[.[./.W.L.A.S.L.W.).`.|.`.`.`.).).)././././././.",
"/././././././.).).).).).`.`./.R.J.A.A.J.W./.`.].).`.).).).`.).).).).`.`.).).).`.`.`./.W.J.A.A.J.W.^.`.`.).).).).)./././././././.",
"/./././././././././.).).`.`.^.T.F.C.C.F.T.^./.)././././././././././././././././.).).^.T.F.C.Z.F.T.^.).).)./.).)././././././././.",
"/././././././././././.).).).^.T.F.C.C.F.T.^.).)././././././././././././././././.).).^.T.F.C.C.F.T.^.).)././././././././././././.",
"/./././././././././././.).).^.T.F.C.C.F.T.^.).`././././././././././././././././.)./.^.T.F.Z.Z.F.T.^.).)././././././././././././."
};
