/* XPM */
static char *result[] = {
/* columns rows colors chars-per-pixel */
"64 64 119 2 ",
"   c #000001",
".  c #00000B",
"X  c #000013",
"o  c #00001A",
"O  c #000F1A",
"+  c #00141D",
"@  c #000222",
"#  c #000B26",
"$  c #070E2A",
"%  c #080D2A",
"&  c #001325",
"*  c #001A21",
"=  c #0B132B",
"-  c #0E1C2D",
";  c #10172D",
":  c #121C2D",
">  c #181C30",
",  c #012229",
"<  c #042C2E",
"1  c #0B2B2E",
"2  c #17202F",
"3  c #132C2F",
"4  c #1B2332",
"5  c #182A30",
"6  c #143531",
"7  c #1A3133",
"8  c #232535",
"9  c #252B36",
"0  c #272D38",
"q  c #282D38",
"w  c #233437",
"e  c #223D37",
"r  c #263739",
"t  c #2B373B",
"y  c #293E3B",
"u  c #32353F",
"i  c #1E4636",
"p  c #224738",
"a  c #2A423D",
"s  c #234838",
"d  c #2E4C3F",
"f  c #31443F",
"g  c #304D3F",
"h  c #363541",
"j  c #3D3C45",
"k  c #423F49",
"l  c #2F4842",
"z  c #334541",
"x  c #344D43",
"c  c #3D4B47",
"v  c #355143",
"b  c #3A5246",
"n  c #3C5549",
"m  c #3D5849",
"M  c #43414B",
"N  c #48464E",
"B  c #41564C",
"V  c #44594F",
"C  c #4C4B52",
"Z  c #504D54",
"A  c #4A5552",
"S  c #465A51",
"D  c #4C5E55",
"F  c #535157",
"G  c #545258",
"H  c #5A575E",
"J  c #545C5A",
"K  c #595A5E",
"L  c #4E6056",
"P  c #55615C",
"I  c #5E5C63",
"U  c #615F65",
"Y  c #5B6261",
"T  c #5F6963",
"R  c #636166",
"E  c #636A67",
"W  c #656369",
"Q  c #68666B",
"!  c #656969",
"~  c #6B696D",
"^  c #706C6F",
"/  c #67706B",
"(  c #6A726D",
")  c #6E6C70",
"_  c #716F72",
"`  c #747275",
"'  c #787475",
"]  c #797678",
"[  c #7D7A7C",
"{  c #817D7F",
"}  c #7E807D",
"|  c #80827F",
" . c #827E80",
".. c #858182",
"X. c #8A8687",
"o. c #8B8788",
"O. c #8E8A8A",
"+. c #928E8E",
"@. c #94908F",
"#. c #959191",
"$. c #999594",
"%. c #9D9896",
"&. c #9F9A99",
"*. c #A29D9B",
"=. c #A6A19F",
"-. c #A7A2A0",
";. c #ABA5A2",
":. c #AFA9A6",
">. c #B0AAA7",
",. c #B2ACA9",
"<. c #B7B1AD",
"1. c #B9B2AF",
"2. c #BCB5B2",
"3. c #BFB8B4",
"4. c #C1BAB6",
"5. c #C4BDB9",
"6. c #C7C0BB",
"7. c #C8C1BC",
"8. c None",
/* pixels */
"3.3.3.3.3.3.3.3.3.3.3.4.4.4.2.:.&.+.+.&.>.2.5.4.2.2.5.2.2.5.2.2.4.2.2.4.4.2.4.4.3.3.3.3.4.4.2.:.$.+.+.&.:.2.3.4.4.2.3.3.3.3.3.3.",
"3.3.3.3.3.3.3.3.3.3.3.3.4.4.2.:.&.+.#.&.:.2.2.5.5.2.5.2.2.5.2.5.2.4.4.2.2.4.4.2.4.2.3.4.4.4.2.:.&.+.+.&.:.2.4.4.3.4.3.3.3.3.3.3.",
"3.3.3.3.3.3.3.3.3.3.3.4.4.4.2.:.&.+.+.&.:.2.2.5.4.2.2.2.2.2.2.4.4.2.4.4.2.4.2.4.2.4.2.4.4.4.2.:.&.+.#.&.:.2.4.4.4.4.2.3.3.3.3.3.",
"3.3.3.3.3.3.3.3.3.4.4.4.5.4.2.:.*.+.#.&.>.2.5.5.5.4.4.5.5.2.5.2.4.4.4.2.4.2.4.4.4.4.4.4.5.5.2.,.*.#.#.&.,.2.4.5.4.2.4.3.3.3.3.3.",
"3.3.3.3.3.3.3.4.4.4.4.5.5.5.3.>.*.#.#.*.,.2.5.5.5.4.4.5.4.4.5.5.4.4.4.4.4.4.5.4.4.4.4.5.5.5.2.,.*.#.#.*.,.3.5.5.4.4.2.4.3.3.3.3.",
"3.3.3.3.3.3.3.3.4.4.4.4.5.5.3.>.*.#.+.*.,.2.5.5.5.2.4.4.2.4.2.4.4.4.4.4.4.4.4.4.4.3.4.5.5.5.2.,.&.#.#.&.,.2.4.5.4.2.4.3.3.3.3.3.",
"3.3.3.3.3.3.3.3.3.2.2.2.3.3.<.;.$.+.O.$.:.,.2.2.2.2.2.2.2.2.2.2.2.2.2.2.2.2.2.2.2.2.2.2.2.3.<.;.$.O.+.&.;.<.2.3.2.4.2.3.3.3.3.3.",
"3.3.3.3.4.3.3.1.,.>.>.>.>.>.:.*.+. .X.+.*.>.,.,.,.,.>.>.,.>.>.>.>.>.>.>.:.>.>.:.:.,.,.,.,.,.:.&.+.....O.&.:.,.2.2.2.4.4.3.3.3.3.",
"3.3.3.3.5.3.3.,.:.-.&.*.=.=.&.@...] ` ..#.&.-.-.=.*.=.*.&.-.-.-.*.*.*.-.=.=.*.=.&.=.*.=.-.-.&.#. .] ]  .O.&.-.:.<.2.4.4.4.2.4.3.",
"3.3.3.3.3.3.2.,.-.$.@.@.#.$.@...` ~ ) ` X.+.#.$.#.#.#.#.#.#.+.#.#.#.#.#.#.#.#.#.#.#.#.#.$.$.+...] ~ ~ `  .O.&.-.,.2.4.4.2.4.3.3.",
"3.3.3.3.5.3.2.>.*.@.o.o.O.O.o.[ ) W I ) [ o.O.+.O.O.O.O.O.O.O.O.O.O.O.O.O.O.O.O.O.O.O.O.O.O.o.[ ) I R ~ ] X.#.=.,.2.4.4.4.2.3.3.",
"3.5.3.5.5.5.2.,.*.+.X.X.O.O.o.[ _ I I ) [ o.O.+.+.O.O.O.O.O.O.O.O.O.O.O.O.O.O.O.O.O.O.+.+.O.o.[ ) I I ~ ]  .#.=.,.2.5.5.4.3.4.4.",
"5.5.5.5.5.5.3.,.=.$.O.O.#.#.O.| ) W I _  .O.+.#.+.+.+.+.+.+.+.+.+.+.+.+.+.+.+.+.+.+.+.+.#.#.O. ._ W R ) [ X.$.-.,.4.5.5.5.4.5.4.",
"3.3.3.3.5.5.2.,.=.$.+.O.#.#.O. ._ W W `  .O.#.#.#.+.+.+.+.+.+.+.+.+.+.+.+.+.+.+.+.+.+.#.#.#.O. ._ W W ) [ O.$.-.,.2.5.5.4.4.4.4.",
"2.2.2.3.2.2.<.:.&.O.o.o.O.O.o.[ _ W W _  .o.+.O.O.o.O.O.O.O.O.O.O.O.O.o.O.o.O.O.O.O.O.O.O.O.o. .) W W ) ] ..+.*.:.<.2.2.2.2.2.2.",
":.:.:.>.>.:.:.*.#...[ [  ...[ ' ~ W I ~ _  ... . . . . . . . . . . . . . . . . . . ......... .` ~ R R W ) [ X.#.*.;.,.,.:.:.:.:.",
"&.&.&.&.*.&.&.O. .] ) ) _ ` _ ~ W I I W ~ _ _ _ _ _ _ _ _ _ _ _ _ _ _ _ _ ) ` _ ` ] ` ] ` ` ) Q W R I R W ) ] ..+.&.=.&.&.&.&.&.",
"+.+.+.#.#.#.O...] ~ I I U W W T U I U U W W W W W W W W W W W W W W W W W W W W W Q Q Q W W W W I I I I I I ~ ]  .O.#.#.#.#.+.#.",
"+.#.+.#.#.#.O...] ~ Y I U W W Q Q ~ Q Q W W W W W W W W W W W W W W W W W W W W I R I R W W W W W W ~ R I R Q ] ..+.#.#.+.#.+.+.",
"&.&.&.&.*.&.&.#. .] ) ) _ _ _ ` ` ` ` ` _ _ _ _ _ _ _ _ _ _ _ ` _ _ _ ` _ ` ) ~ W I I R ~ ) ` ` ] ] ] _ ) ) ]  .#.$.&.&.&.&.&.&.",
":.:.:.,.,.,.;.&.+...{ [ { {  . . . . . . . . . . . . . . . . . . . . . . . . .` ~ R R ~ `  . . . . . . .[ [ X.+.&.;.,.,.>.:.:.:.",
"2.2.2.2.2.3.<.:.&.+.X.X.o.O.O.O.+.O.O.O.O.O.O.O.O.O.o.O.O.O.O.O.O.O.O.O.+.+.X.[ ) W W ) [ O.O.+.O.O.O.o.X.X.O.&.:.<.2.2.2.2.2.2.",
"3.3.3.5.5.4.2.,.-.$.O.O.+.+.+.+.+.+.+.+.+.+.+.+.+.+.+.+.+.+.+.+.+.#.+.#.#.#.+. .` W W `  .+.#.#.#.#.#.O.O.O.#.-.,.2.5.5.5.4.4.4.",
"3.5.4.4.6.5.2.<.-.$.+.+.+.#.#.#.#.#.#.#.#.#.#.#.#.#.#.#.#.#.#.#.#.#.#.#.#.#.+. .` W W `  .+.#.&.#.#.#.#.+.+.&.-.,.4.5.5.4.4.4.4.",
"3.3.5.4.5.5.2.,.=.$.#.O.#.#.#.#.#.#.#.#.#.#.#.#.#.#.#.#.#.#.#.#.#.#.#.#.$.$.+. .` W W `  .+.#.#.#.#.#.+.O.#.#.-.,.2.5.4.4.4.2.4.",
"3.3.3.3.5.3.1.,.=.#.+.O.O.+.+.+.+.#.+.+.+.+.+.+.+.+.+.+.+.+.+.+.+.+.+.#.#.#.+. .` W W `  .O.#.#.#.+.+.+.O.+.#.=.,.2.4.4.4.4.3.3.",
"3.3.3.3.5.3.1.:.&.+.X.X.o.O.O.O.O.O.O.O.o.O.O.o.O.O.O.O.O.O.O.O.O.O.O.O.O.+.o.[ ) W W )  .X.O.+.O.O.O.o.o.o.#.&.:.2.4.4.4.3.3.3.",
"3.3.3.5.5.3.1.:.%.X.[ ] [ {  . . . . . . . . . . . . . . . . ... . . . ... .[ ` ~ R R ~ `  . . . . . .[ [ [ o.$.:.<.4.5.4.3.3.3.",
"3.3.3.3.5.5.1.;.+.[ W W ) ) ) ` ] ] ] ` ` _ _ _ _ _ _ _ _ _ _ _ _ _ _ ` ` _ _ ~ W I I W ) ) ` ` ] ] ` ) Q ~ [ +.-.1.4.5.4.4.2.4.",
"3.3.3.4.5.5.1.=.O._ I I I W W W Q W Q Q W W W W W W W W W Q W W W W W W W W W W R I I R R W W W Q Q Q I H I ) O.-.<.5.5.4.2.3.3.",
"3.3.3.4.4.5.1.=.O._ I J I W W W U I U U W W W W W W W W W W W W W W W W W W W W Q Q Q Q W W W W W I I I H I ) O.-.<.4.5.4.3.3.3.",
"3.3.3.3.5.3.1.;.O.[ ~ ~ ) ` ) ) W I I W Q _ ` _ _ _ _ _ _ _ _ _ _ _ _ _ _ _ _ _ ` ` ] ` ` ` ) Q W I I I I W  .#.-.1.4.5.4.3.3.3.",
"3.3.3.4.4.4.1.:.&...[ [ } ..[ ' ) U I ~ ] [ |  . .{ { { { {  .{  . . . . . . . .| ..| ......[ ] Q T U Q ) ] o.&.;.2.3.6.3.3.3.3.",
"3.3.3.4.4.4.1.:.&.#...o.O.O.o.[ ) W Q _ [ o.O.+.O.O.O.O.O.O.O.O.O.O.O.O.o.O.o.O.O.O.O.O.+.O.o.[ _ W U ) ] ..#.*.:.2.5.3.3.3.3.3.",
"3.3.3.3.6.3.1.,.=.#.O.+.@.#.+.} _ W W _  .O.#.#.#.#.#.+.+.+.#.@.+.+.+.#.+.#.+.+.#.+.+.#.#.#.O. .` W Q ) [ O.$.-.,.2.3.5.3.3.3.3.",
"3.3.3.3.4.4.2.,.=.%.@.#.$.#.@...` Q Q ` ..+.$.$.#.#.#.#.#.#.#.#.#.#.#.#.#.#.#.#.#.#.#.$.$.$.+...` W Q _  .O.&.-.,.2.3.3.3.3.3.3.",
"3.3.3.3.4.4.2.,.-.%.#.@.$.$.@...` Q Q ` ..#.$.$.$.#.#.#.#.$.#.#.#.#.#.#.#.#.$.#.#.#.#.$.$.$.+...` Q W `  .+.&.;.,.3.3.5.3.3.3.3.",
"3.3.3.4.4.4.2.,.=.$.+.O.@.@.+.| ` Q W ` ..O.#.$.#.#.#.#.@.@.#.@.#.#.#.#.#.+.#.#.+.#.#.#.#.#.+.| _ Q W _ [ O.$.-.,.3.3.3.3.3.3.3.",
"3.3.3.4.3.4.2.:.&.O...X.O.O.X.} ) T W ) | X.O.O.O.O.O.O.o.o.O.o.O.o.o.o.o.o.o.O.X.o.O.O.+.O.X.} _ I T Q ` ..#.*.,.2.3.5.5.3.3.3.",
"4.3.4.4.6.4.2.:.#...` ` ] ] } ( Q Y I Q ( [ | | | } } [ } } } } } } } } | } }  .} } } | | | } ( W I I I W _ ..$.;.2.5.7.3.3.3.5.",
"4.4.4.6.6.6.2.=.o.^ H H R E E T I D P Y T / ( ( ( ( ( ( ( ( ( ( ( ( ( ( / ( ( ( ( / ( ( ( ( ( T P A F A C G ^ O.-.2.7.7.5.5.4.4.",
"4.4.3.6.6.6.1.*.{ H u t M V D S S m m S L L L L D D D D D D D D D D D D L L L L L L L L L L L S V B B z r u H { &.2.5.7.5.3.4.4.",
"2.2.2.2.4.4.,.$.' N @ O 6 g g g v v v v v l l l d d d g d d d d l l l l x l x l d l d l d d l v v b x e + # N ' $.,.3.3.2.1.2.2.",
":.:.:.,.<.,.=.+.^ k @ O 6 s g g x v v l s i i i i i p p p i p i i i i i i i i d i i i i i i i v g v v e * o k ^ +.-.,.<.,.>.:.>.",
"%.*.&.*.*.=.$.| Q k > 1 p x v v m 8.8.8.8.8.8.8.8.8.8.8.8.8.8.8.8.8.8.8.8.8.8.8.8.8.8.8.8.8.8.v b b b d 3 : M W  .$.*.=.*.&.&.&.",
"+.+.+.#.#.#.+.] U N q r x n b n 8.8.8.8.8.8.8.8.8.8.8.8.8.8.8.8.8.8.8.8.8.8.8.8.8.8.8.8.8.8.8.8.b m n x r 0 N U [ O.#.$.#.+.+.#.",
"+.@.+.@.$.$.o.' U k q t x n n n 8.8.8.8.8.8.8.8.8.8.8.8.8.8.8.8.8.8.8.8.8.8.8.8.8.8.8.8.8.8.8.8.n b n x r 0 N U ] O.#.#.#.#.+.+.",
"&.&.*.*.*.*.$...Q N 9 w x n m m 8.8.8.8.8.8.8.8.8.8.8.8.8.8.8.8.8.8.8.8.8.8.8.8.8.8.8.8.8.8.8.8.n n B x w 9 N Q ..$.*.-.&.&.&.&.",
":.:.:.>.,.,.;.+._ C 4 7 x n n n 8.8.8.8.8.8.8.8.8.8.8.8.8.8.8.8.8.8.8.8.8.8.8.8.8.8.8.8.8.8.8.8.n m n x 7 8 N ` +.=.,.,.,.>.>.>.",
"2.2.2.3.4.4.,.%.' Z 4 1 l n n m 8.8.8.8.8.8.8.8.8.8.8.8.8.8.8.8.8.8.8.8.8.8.8.8.8.8.8.8.8.8.8.8.n m n l 1 4 Z ' *.,.4.4.4.1.4.<.",
"4.4.4.4.7.5.1.%.{ Z : , p b b b 8.8.8.8.8.8.8.8.8.8.8.8.8.8.8.8.8.8.8.8.8.8.8.8.8.8.8.8.8.8.8.8.x b b a , : N { *.<.5.6.5.4.4.4.",
"4.5.4.5.7.5.1.*.' N o . < y y y r 8.8.8.8.8.8.8.8.8.8.8.8.8.8.8.8.8.8.8.8.8.8.8.8.8.8.8.8.8.8.w y z z 7 X X N { *.,.6.7.5.4.4.4.",
"4.3.4.5.7.5.2.%.' j     X * , < - ; % o X .                                                 X & 5 r w &     j ^ *.4.5.5.5.4.4.4.",
"3.3.3.4.5.5.,.%.' M     o : > 4 9 9 8 8 > ; = % = = = = = = = ; = = = = = ; ; = = = = = % % > > 8 0 9 #   . k { $.<.5.5.4.4.4.4.",
"3.3.3.4.5.5.2.*...R k j N Z Z C N N N Z Z G H G G G G G G G G G G G G G H G G G G G G G H G Z Z N N M j u k U | *.,.4.5.4.4.<.4.",
"3.3.3.4.5.4.1.;.$.| ' ' ] { ] ` ^ Q Q _ ]  . . ... .{  . ...{  .{ .. . . . .{ |  .{  ... . .{ ' ~ R U W ^ ' | $.*.4.4.4.4.1.4.4.",
"4.4.4.4.4.4.4.>.=.*.*.*.*.*.$.@.X.[ { X.@.*.*.=.*.*.*.*.*.*.*.*.*.*.*.*.*.*.*.*.*.*.*.*.*.*.*.@.{ { { { O.$.*.:.<.4.4.4.4.4.1.4.",
"1.4.1.4.1.4.4.<.4.1.<.<.,.1.<.*.$.o.o.$.=.,.1.4.1.1.1.1.<.<.1.1.1.1.<.1.<.<.<.1.1.1.1.1.1.4.<.*.$.o.O.$.*.:.4.4.1.4.4.4.1.4.4.4.",
"4.4.4.1.4.4.4.4.4.4.5.5.7.5.4.,.*.$.@.*.,.4.5.5.5.5.5.5.4.5.5.4.5.5.5.5.5.5.5.4.5.5.5.5.5.5.5.,.*.#.#.*.<.4.5.5.4.4.4.4.4.4.1.4.",
"4.1.4.4.<.4.4.4.4.5.5.7.7.5.4.,.*.$.$.*.,.4.5.7.5.5.5.5.5.5.5.5.5.5.5.5.5.5.5.5.5.5.5.5.5.5.5.<.*.#.$.*.<.4.5.5.4.4.4.1.4.4.<.4.",
"4.4.4.4.4.1.4.1.4.4.4.4.5.5.4.,.*.+.+.*.>.4.4.4.5.4.4.4.4.4.4.4.4.4.4.4.5.4.4.4.4.4.4.4.5.5.4.>.*.#.#.*.,.4.4.5.4.1.1.4.1.1.4.4.",
"4.1.4.1.4.4.4.4.4.<.4.4.5.4.4.:.*.+.+.*.:.1.4.4.4.4.4.4.4.4.4.1.4.4.4.1.4.4.4.4.1.4.4.4.4.4.1.:.*.@.+.*.;.1.4.4.4.4.4.4.4.4.1.4.",
"4.1.4.1.<.4.4.4.4.4.4.4.4.4.1.;.%.+.+.*.:.2.4.4.4.4.4.4.1.4.4.4.4.1.4.4.4.4.4.1.1.4.4.4.4.4.1.:.*.+.@.*.:.4.4.4.4.4.1.4.1.4.4.4.",
"4.4.4.4.4.4.1.4.1.4.4.4.4.4.4.:.*.+.+.*.:.1.4.4.4.4.1.4.4.4.1.2.4.4.4.1.4.1.4.4.4.4.4.4.4.4.4.*.*.+.O.*.;.,.4.4.4.4.4.4.4.4.1.4."
};
