/* XPM */
static char *result[] = {
/* columns rows colors chars-per-pixel */
"64 64 69 1 ",
"  c #4B3222",
". c #4B3223",
"X c #4C3323",
"o c #4D3323",
"O c #4D3424",
"+ c #4E3424",
"@ c #4E3524",
"# c #4F3524",
"$ c #4F3525",
"% c #503625",
"& c #513725",
"* c #513726",
"= c #523726",
"- c #523826",
"; c #533826",
": c #533927",
"> c #543927",
", c #553A28",
"< c #563A28",
"1 c #563B28",
"2 c #583D29",
"3 c #593D29",
"4 c #593D2A",
"5 c #5A3E2A",
"6 c #5B3E2A",
"7 c #5B3F2B",
"8 c #5C3F2B",
"9 c #5C402B",
"0 c #5D402B",
"q c #5D402C",
"w c #5E412C",
"e c #5F422C",
"r c #5F422D",
"t c #60422D",
"y c #60432D",
"u c #61442E",
"i c #654730",
"p c #664730",
"a c #664830",
"s c #674831",
"d c #684931",
"f c #684932",
"g c #694932",
"h c #694A32",
"j c #6A4A32",
"k c #6A4B32",
"l c #6A4B33",
"z c #6B4B33",
"x c #6D4D34",
"c c #6F4E35",
"v c #715036",
"b c #725036",
"n c #725136",
"m c #725137",
"M c #735137",
"N c #735237",
"B c #745237",
"V c #745238",
"C c #755338",
"Z c #765338",
"A c #765438",
"S c #765439",
"D c #775439",
"F c #775539",
"G c #785539",
"H c #78553A",
"J c #78563A",
"K c #79563A",
"L c #7A573B",
/* pixels */
"CCCCCCCCCCCCCCCCCCCCCCCCCCCCCCCCCCCCCCCCCCCSFDnd8==8dnDFSCCCCCCC",
"CCCCCCCCCCCCCCCCCCCCCCCCCCCCCCCCCCCCCCCCCCCSFDnd8==8dnDFSCCCCCCC",
"CCCCCCCCCCCCCCCCCCCCCCCCCCCCCCCCCCCCCCCCCCCSFDmf8==8fmDFSCCCCCCC",
"SSSSSSSSSSSSSSSZCCCCZSSSSSSACCCCCCCCCCCCCCCDHGNh9==9hMHKFSSSSSSS",
"FFFFFFFFFFFFGFFSZCCZSFFGGFFSACCCCCCCCCCCCCCFKKVkq==qjVKLKFFFFFFF",
"DDDDDDDDDDDDDDDSCCCCSDDDDDDSZCCCCCCCCCCCCCCDKJBj0==0jBKKHDDDDDDD",
"nnnnnnnnnnnnbbmNVCCVNmbbbbmMBCCCCCCCCCCCCCCCCBcp5**6pcBVMnnnnnnn",
"dfffdfffdfddsdjxbCCbxjdssdjxvBAACCCCCCCCAABvcziw<$$1rpjkhfffdfff",
"88888888888645rscVVcsr5225rpxMSDACCCCCCADSMxsr3:$oo&15qq98888888",
"===========%+$1uxBBxu1#XX#1ykmDFSCCCCCCSFDmky1#XoOO@%*--========",
"===========%+$1uxBBxu1#XX#1ykmDFSCCCCCCSFDmjt<$$=>>>;-=*========",
"88888888888645rscVVcsr5225rpxMSDACCCCCCADSMxiw57qrrwq98888888888",
"dfffdfffdfddsdjxbCCbxjdssdjxvBAACCCCCCCCAABvxjddhjjhhgdddfffdfff",
"nnnnnnnnnnnnbbmNVCCVNmbbbbmMBCCCCCCCCCCCCCCBMmnbnnmnnnnnnnnnnnnn",
"DDDDDDDDDDDDDDDSCCCCSDDDDDDSZCCCCCCCCCCCCCCZSDDDDDDDDDDDDDDDDDDD",
"FFFFFFFFFFFFGFFSZCCZSFGGGGFSACCCCCCCCCCCCCCASFFGFFFFFFFFFFFFFFFF",
"SSSSSSSSSSSSSSSZCCCCZSSSSSSACCCCCCCCCCCCCCCCASSSSSSSSSSSSSSSSSSS",
"CCCCCCCCCCCCCCCCCCCCCCCCCCCCCCCCCCCCCCCCCCCCCCCCCCCCCCCCCCCCCCCC",
"CCCCCCCCCCCCCCCCCCCCCCCCCCCCCCCCCCCCCCCCCCCCCCCCCCCCCCCCCCCCCCCC",
"CCCCCCCCCCCCCCCCCCCCASSACCCCCCCCCCCCCCCCCCCCCCCCCCCCCCCCCCCCCCCC",
"CCCCCCCCCCCCCCCCCCCADFFDACCCCCCCCCCCCCCCCCCCCCCCCCCCCCCCCCCCCCCC",
"CCCCCCCCCCCCCCCCCCCZSDDSZCCCCCCCCCCCCCCCCCCCCCCCCCCCCCCCCCCCCCCC",
"CCCCCCCCCCCCCCCCCCCBMmmMBCCCCCCCCCCCCCCCCCCCCCCCCCCCCCCCCCCCCCCC",
"SSSSSSSSSSSSSSSDFDCvxkkxvCDFDSSZCCCCZSSSSSSACCCCCCCCCCCCCCCCZSSS",
"FFFFFFFFFFFFFFFHKKCcayyacCKKJGFSZCCZSFFGGFFSACCCCCCCCCCCCCCASFFG",
"DDDDDDDDDDDDDDDGKJBzr11rzBJKHFDSCCCCSDDDDDDSZCCCCCCCCCCCCCCZSDDD",
"nnnnnmmnnnnnnnnMVBci4##4icBVMnmNVCCVNmbbbbmMBCCCCCCCCCCCCCCBMmbb",
"ddghhjjhhgdddffhljpw>..>wpjjddjxbCCbxjdssdjxvBAACCCCCCCCAABvxjds",
"889qwrrwq9888889qq5,$  $,5q855rscVVcsr5225rpxMSDACCCCCCADSMxpe54",
"*=-;>>>>;-=*====--*%@OO@%*=%+$1uxBBxu1#XX#1ykmDFSCCCCCCSFDmky1$+",
"--*%@OO@%*--====*=-;>>>>;-*%+$1uxBBxu1#XX#1ykmDFSCCCCCCSFDmky1$+",
"qq5,$  $,5qq9888889qwrrwq98545rscVVcsr5225rpxMSDACCCCCCADSMxpe54",
"ljpw>..>wpjlhffdddghhjjhhgddsdjxbCCbxjdssdjxvBAACCCCCCCCAABvxjds",
"VBci4##4icBVMnnnnnnnnmmnnnnnbbmNVCCVNmbbbbmMBCCCCCCCCCCCCCCBMmbb",
"KJBzr11rzBJKGDDDDDDDDDDDDDDDDDDSCCCCSDDDDDDSZCCCCCCCCCCCCCCZSDDD",
"KKCcayyacCKKHFFFFFFFFFFFFFFFGFFSZCCZSFGGGGFSACCCCCCCCCCCCCCASFFG",
"FDCvxkkxvCDFDSSSSSSSSSSSSSSSSSSZCCCCZSSSSSSACCCCCCCCCCCCCCCCASSS",
"CCCBMmmMBCCCCCCCCCCCCCCCCCCCCCCCCCCCCCCCCCCCCCCCCCCCCCCCCCCCCCCC",
"CCCZSDDSZCCCCCCCCCCCCCCCCCCCCCCCCCCCCCCCCCCCCCCCCCCCCCCCCCCCCCCC",
"CCCADFFDACCCCCCCCCCCCCCCCCCCCCCCCCCCCCCCCCCCCCCCCCCCCCCCCCCCCCCC",
"CCCCASSACCCCCCCCCCCCCCCCCCCCCCCCCCCCCCCCCCCCCCCCCCCCCCCCCCCCCCCC",
"CCCCCCCCCCCCCCCCCCCCCCCCCCCCCCCCCCCCCCCCCCCCCCCCCCCCCCCCCCCCCCCC",
"CCCCCCCCCCCCCCCCCCCCCCCCCCCCCCCCCCCCCCCCCCCCCCCCCCCCCCCCCCCCCCCC",
"SSSSSSSSSSSACCCCCCCCCCCCZSSSSSSSSSSSSSSSSSSSSSSSSSSSSSSSSSSSSSSS",
"FFFFFFFFGFFSACCCCCCCCCCASFFGFFFFFFFFFFFFFFFFFFFFFFFFFFFFFFFFFFFF",
"DDDDDDDDDDDSZCCCCCCCCCCZSDDDDDDDDDDDDDDDDDDDDDDDDDDDDDDDDDDDDDDD",
"nnnnnnnnbbmMBCCCCCCCCCCBMmbbbnnnnnnnnnnnnnnnnnnnnmmnnnnnnnnnnnnn",
"dfffdfddsdjxvBAACCCCAABvxjdsddffdfffdfffdffdddghhjjhhgdddfffdfff",
"8888888645rpxMSDACCADSMxpe546888888888888888889qwrrwq98888888888",
"=======%+$1ykmDFSCCSFDmky1$+%===============*=-;>>>>;-=*========",
"=======%+$1ykmDFSCCSFDmky1$+%===============--*%@OO@%*--========",
"8888888645rpxMSDACCADSMxpe546888888888888889qq5,$  $,5qq98888888",
"dfffdfddsdjxvBAACCCCAABvxjdsddffdfffdfffdffhljpw>..>wpjlhfffdfff",
"nnnnnnnnbbmMBCCCCCCCCCCBMmbbbnnnnnnnnnnnnnnMVBci4##4icBVMnnnnnnn",
"DDDDDDDDDDDSZCCCCCCCCCCZSDDDDDDDDDDDDDDDDDDGKJBzr11rzBJKGDDDDDDD",
"FFFFFFFFGFFSACCCCCCCCCCASFFGFFFFFFFFFFFFFFFHKKCcayyacCKKHFFFFFFF",
"SSSSSSSSSSSACCCCCCCCCCCCASSSSSSSSSSSSSSSSSSDFDCvxkkxvCDFDSSSSSSS",
"CCCCCCCCCCCCCCCCCCCCCCCCCCCCCCCCCCCCCCCCCCCCCCCBMmmMBCCCCCCCCCCC",
"CCCCCCCCCCCCCCCCCCCCCCCCCCCCCCCCCCCCCCCCCCCCCCCZSDDSZCCCCCCCCCCC",
"CCCCCCCCCCCCCCCCCCCCCCCCCCCCCCCCCCCCCCCCCCCCCCCADFFDACCCCCCCCCCC",
"CCCCCCCCCCCCCCCCCCCCCCCCCCCCCCCCCCCCCCCCCCCCCCCCASSACCCCCCCCCCCC",
"CCCCCCCCCCCCCCCCCCCCCCCCCCCCCCCCCCCCCCCCCCCCCCCCCCCCCCCCCCCCCCCC",
"CCCCCCCCCCCCCCCCCCCCCCCCCCCCCCCCCCCCCCCCCCCCCCCCCCCCCCCCCCCCCCCC",
"CCCCCCCCCCCCCCCCCCCCCCCCCCCCCCCCCCCCCCCCCCCCCCCCCCCCCCCCCCCCCCCC"
};
